<?xml version="1.0" encoding="UTF-8"?>
<svg id="Layer_1" data-name="Layer 1" xmlns="http://www.w3.org/2000/svg" viewBox="0 0 1080 1080">
  <defs>
    <style>
      .cls-1 {
        fill: #fff;
      }
    </style>
  </defs>
  <rect x="-15.93" y="-21.69" width="1111.85" height="1113.19"/>
  <g>
    <g>
      <path class="cls-1" d="m150.91,622.04c0-21.4,18.07-39.35,39.68-39.35,9.97.14,19.17,4.34,26.71,11.59l-7.01,9.38c-5.39-5.33-12.4-8.86-19.93-8.86-13.93,0-27.23,12.07-27.23,27.29s13.5,27.15,27.28,27.15c7.87,0,14.64-3.86,19.93-9.05l6.96,9.61c-6.63,6.46-15.07,11.41-26.52,11.41-21.79,0-39.87-17.72-39.87-39.16Z"/>
      <path class="cls-1" d="m274.73,649.51h-36.17l-5.21,11.69h-12.99l35.93-78.52h.71l35.93,78.52h-12.99l-5.21-11.69Zm-4.65-10.36l-13.42-30.07-13.46,30.07h26.88Z"/>
      <path class="cls-1" d="m301.4,582.68h25.55c14.79,0,26.88,11.64,26.88,25.91s-12.09,25.38-26.88,25.38h-13.56v27.23h-11.99v-78.52Zm40.44,25.81c0-7.5-6.68-13.59-14.89-13.59h-13.56v26.84l13.56.05c8.2.05,14.89-5.94,14.89-13.3Z"/>
      <path class="cls-1" d="m358.94,646.42l9.48-6.7c3.41,5.9,9.77,9.28,17.11,9.28,8.58,0,15.08-4.08,15.08-9.84,0-6.98-10.05-11.2-18.96-14.99-8.96-3.94-18.91-8.53-18.91-20.38s10.86-20.99,24.6-20.99c10.9,0,19.06,5.2,22.19,13.49l-8.91,6.09c-2.37-5.11-7.63-7.97-13.18-7.97-7.02,0-12.61,4.31-12.61,9.65,0,5.9,7.06,8.01,16.36,11.95,12.09,5.25,21.48,11.01,21.48,22.91,0,13.4-11.76,22.02-27.26,22.02-12.56,0-22.09-5.81-26.45-14.52Z"/>
      <path class="cls-1" d="m422.22,630.48v-47.79h12.04v47.75c0,10.65,7.44,18.43,16.78,18.43s16.88-7.78,16.88-18.43v-47.75h12.09v47.79c0,17.67-12.66,30.61-28.92,30.61s-28.87-12.94-28.87-30.61Z"/>
      <path class="cls-1" d="m540.01,648.93v12.27h-46.08v-78.52h11.99v66.24h34.09Z"/>
      <path class="cls-1" d="m561.57,594.81v20.12h28.92v12.27h-28.92v21.73h33.52v12.27h-45.51v-78.52h45.51v12.13h-33.52Z"/>
      <path class="cls-1" d="m693.01,582.68v78.52h-11.99v-33.17h-33.09v33.17h-11.95v-78.52h11.95v33.12h33.09v-33.12h11.99Z"/>
      <path class="cls-1" d="m704.04,622.01c0-21.55,17.73-39.17,39.49-39.17s39.54,17.62,39.54,39.17-17.82,38.88-39.58,38.88-39.44-17.52-39.44-38.88Zm66.89-.09c0-14.94-12.37-27.13-27.45-27.13s-27.35,12.18-27.35,27.13,12.28,26.99,27.35,26.99,27.45-12.13,27.45-26.99Z"/>
      <path class="cls-1" d="m868.9,582.52v78.68h-11.99v-42.71l-25.36,41.42h-.09l-25.41-41.47v42.76h-11.99v-78.68h.9l36.55,55.99,36.5-55.99h.9Z"/>
      <path class="cls-1" d="m895.57,594.81v20.12h28.92v12.27h-28.92v21.73h33.52v12.27h-45.51v-78.52h45.51v12.13h-33.52Z"/>
    </g>
    <g>
      <g>
        <polygon class="cls-1" points="558.43 496.84 544.49 496.83 544.44 474.59 558.37 474.6 558.43 496.84"/>
        <polygon class="cls-1" points="562.3 506.68 540.64 506.66 542.6 501.74 560.35 501.76 562.3 506.68"/>
        <polygon class="cls-1" points="566.13 516.32 536.81 516.3 538.77 511.38 564.18 511.4 566.13 516.32"/>
        <polygon class="cls-1" points="569.97 525.97 532.98 525.94 534.94 521.02 568.01 521.05 569.97 525.97"/>
      </g>
      <path class="cls-1" d="m655.22,472.32c0,17.79-8.58,33.56-21.79,43.29-6.57,4.84-14.29,8.19-22.66,9.55-.17.03-.34.06-.52.08-2.59.41-5.24.7-7.95.7h-20.39l-2-5.11-2.04-5.22-4.37-11.15h0s-13.85-35.35-13.85-35.35l-6.52-16.63-2.31-5.89-27.03,69.02-4.05,10.33h-42.1c-11.67,0-22.45-3.84-31.19-10.33-13.14-9.76-21.67-25.54-21.67-43.29s8.7-33.77,22.06-43.49c8.69-6.32,19.34-10.04,30.85-10.04h55.25l-3.93,10.04h-51.32c-11.38,0-22.09,4.49-30.15,12.66-3.95,3.99-7.05,8.65-9.22,13.83-2.25,5.38-3.39,11.1-3.39,17s1.14,11.62,3.39,17c2.17,5.18,5.27,9.84,9.22,13.83,7.09,7.17,16.22,11.51,26.05,12.46,1.36.13,2.73.2,4.11.2s2.75-.07,4.11-.2h31.11l2.07-5.3,15.59-39.82h0s16.31-41.66,16.31-41.66h0l3.93-10.04,3.93,10.04,4.72,12.04h0l4.64,11.84h0s23.71,60.55,23.71,60.55l.92,2.35h9.45c1.36.13,2.73.2,4.11.2s2.75-.07,4.11-.2h.62l-.02-.06c9.6-1.06,18.5-5.37,25.45-12.4,3.95-3.99,7.05-8.65,9.22-13.83,2.25-5.38,3.39-11.1,3.39-17s-1.14-11.62-3.39-17c-2.17-5.18-5.27-9.84-9.22-13.83-8.07-8.16-18.78-12.66-30.15-12.66h-29.25l-.35-.89-3.58-9.15h33.18c11.51,0,22.17,3.72,30.85,10.04,13.36,9.72,22.06,25.57,22.06,43.49Z"/>
    </g>
  </g>
</svg>