<?xml version="1.0" encoding="UTF-8"?>
<svg id="Layer_1" data-name="Layer 1" xmlns="http://www.w3.org/2000/svg" viewBox="0 0 1080 1080">
  <defs>
    <style>
      .cls-1 {
        fill: #fff;
      }
    </style>
  </defs>
  <rect x="-13.6" y="-38.09" width="1107.71" height="1159.85"/>
  <g>
    <path class="cls-1" d="m630.23,587.75c.22.01.5-.03.82-.1l-.82.1Z"/>
    <path class="cls-1" d="m673.64,661.69c.16,1.08-.19,2.46-.45,3.5-.29,1.15-.74,2.26-1.31,3.29-1.13,2.05-2.84,4.02-4.73,5.42-1.04.78-2.22,1.39-3.49,1.72-1.17.31-2.72.52-3.88.13-2.46-.83-3.47-4.28-4.14-6.53-.91-3.06-1.44-6.24-1.84-9.4-2.39-19.03-1.63-43.72,2.26-74.22.05-.45-.18-.85-.55-1.04l11.22-1.41c-.13.04-.28.1-.42.14-.37.12-.65.44-.7.83-.01.1-.03.21-.04.31-4.96,35.86-6.63,59.98-5.08,72.48.25,1.99.56,3.97,1.06,5.91.55,2.15,1.16,5.23,3.43,6.24.65.29,1.42.35,2.09.09,1.06-.42,1.67-1.5,2.22-2.43.74-1.26,1.38-2.58,2.01-3.89.39-.8.65-2.15,1.62-2.44.35-.1.58.37.71,1.3Z"/>
    <path class="cls-1" d="m683.38,481.26c-.04,7.01-.54,11.42-1.44,13.13-1.98,3.47-3.63,7.99-5.02,13.6-1.35,5.6-3.01,15.93-4.98,30.98-1.78,13.88-3.98,27.19-5.51,36.54-.06.39-.13.77-.19,1.15-3.2.33-6.41.67-9.63,1,.05-.32.12-.7.19-1.15,1.33-7.89,5.89-34.45,11.31-62.42.23-1.21-1.47-1.71-1.94-.58l-26.29,64.75-.47,1.18h0c-1.86.19-3.74.39-5.61.58.16-.39.32-.78.49-1.18,6.81-16.79,16.77-43.83,29.23-79.26,8.8-25.12,14.49-37.88,17.05-38.3,1.12-.21,1.89,1.3,2.29,4.57.4,3.26.58,8.41.54,15.41Z"/>
    <path class="cls-1" d="m638.46,586.72c-.15.4-.31.79-.46,1.19-3.71,9.44-7.95,18.62-12.34,27.76-8.02,16.7-18.23,32.56-30.81,46.2-5.98,6.48-12.52,12.44-19.58,17.73s-14.67,10.86-22.75,13.4c-11.48,3.61-26.92,6.02-35.02-5.23-1.71-2.37-2.91-5.08-3.78-7.86-2.88-9.34-2.29-20.7,1.74-34.1,4.69-15.59,12.58-30.74,23.76-45.5.19-.25.38-.51.58-.76.16-.21.56-.91.83-.94l5.24-.75c.17-.02.41.49.63.41l1.47-.19c-.28.41-.55.82-.82,1.24-8.86,13.43-15.8,29.22-18.62,43.48-3.32,16.92-3.81,29.17-1.43,36.9,3.59,11.57,12.7,14.32,27.33,8.25,33.97-14.1,54.61-49.3,68.57-81.33,2.57-5.91,5.11-11.83,7.57-17.78.16-.4.33-.79.49-1.19l7.4-.93Z"/>
    <path class="cls-1" d="m748.47,574.04c.64-2.46.04-.85-.23-1.55l-10.16,1.27c-.08.51-.12.59-.15.69-.09.3-.19.61-.28.93-2.64,8.6-7.67,25.16-10.07,35.5-3.32,14.43-4.89,25.74-4.71,33.94.22,8.2,1.35,13.65,3.41,16.29,2.07,2.65,4.67,3.89,7.81,3.79,7.27-.21,14.76-5.29,22.53-15.15,6.46-7.99,12.2-18.52,17.18-31.5,1.48-3.63-13.28,19.56-18.84,26.77-2.07,2.65-5.07,5.56-8.98,8.67-3.95,3.17-7.13,4.78-9.55,4.83-5.2.15-7.9-3.43-8.08-10.85-.22-7.84,2.11-20.24,6.91-37.36.6-2.13,1.25-4.25,1.94-6.36.7-2.17,1.44-4.33,2.2-6.48.76-2.13,1.54-4.26,2.33-6.37.76-2.02,1.53-4.03,2.32-6.03.72-1.82,1.44-3.64,2.17-5.46.62-1.55,1.25-3.1,1.88-4.65.4-.99.88-1.93,1.36-2.88-3.16.05-6.31.17-9.4.81-.7.15-1.43.33-1.94.83"/>
    <path class="cls-1" d="m758.58,545.72c.04,2.1-2.97,10.85-7.21,20.99-.16.39-.33.79-.49,1.18h0c-3.75,1.71-7.72,1.71-11.2,1.16.13-.37.28-.76.42-1.17,1.85-5.15,4.67-13.74,6.6-19.05,2.7-7.31,4.54-10.95,5.56-11,1.03-.05,2.34.73,3.91,2.28,1.57,1.56,2.38,3.42,2.43,5.61Z"/>
    <path class="cls-1" d="m712.72,661.14c-4.36,1.28-7.21-1.15-8.57-7.3-1.35-6.15-.01-15.46,4.01-27.93l6.51-19.74c.03-.1.05-.22.05-.33.01-1.06-.55-2.08-1.66-3.06-1.18-1.03-2.16-1.43-2.96-1.2-.69.2-1.15.39-1.36.55-.06.04-.1.1-.14.16l-3.11,4.15c-1.82,2.32-3.62,3.74-5.4,4.27-2.97.87-4.78.06-5.44-2.44-.05-.18-.04-.37.01-.55l2.12-6.99c1.6-4.74,2.12-8.4,1.55-10.99-.57-2.59-1.99-3.55-4.28-2.88-3.46,1.02-5.1,7.46-4.92,19.33,0,.06,0,.12-.01.17-1.59,10.1-5.25,22.93-11,38.48-1.15,2.96-1.57,5.08-1.29,6.37.11.52.42.7.91.55.99-.28,3.47-6.32,7.43-18.09l6.3-19.92c.24-.78,1.27-.96,1.77-.31,2.14,2.75,4.22,3.82,6.24,3.23,0,0,.01,0,.02,0,.77-.22,1.49.46,1.28,1.24-1.33,4.72-2.31,10.19-2.97,16.41-.76,7.11-.55,13.38.64,18.81,2.36,10.74,7.25,15.03,14.69,12.85,5.05-1.48,4.13-6.18-.43-4.84Z"/>
    <path class="cls-1" d="m284.58,482.25c1.56-1.3,2.28-2.89,2.13-4.75-.05-.76-.41-1.12-1.06-1.05-.66.07-1.58,1.03-2.76,2.88-6.77,10.92-9.76,21.43-8.98,31.57.62,8.03,3.36,14.44,8.25,19.23,4.89,4.8,10.61,6.86,17.17,6.18,13.88-1.42,25.02-13.45,33.42-36.09,3.36-9.2,4.59-19.83,3.67-31.88-1.51-19.68-8.48-32.17-20.9-37.45-4.56-2.03-9.79-2.75-15.69-2.14-11.15,1.15-22.6,6.99-34.35,17.54-11.74,10.55-21.52,24.61-29.31,42.17-10.8,24.42-16.73,49.02-17.8,73.79-.32,7.36-.23,14.19.25,20.5,1.1,14.34,4.28,26.44,9.56,36.3,7.87,14.99,18.61,21.79,32.22,20.39,13.6-1.4,26.65-9.01,39.14-22.81,10.17-11.06,17.74-22.24,22.72-33.54,1.04-2.23,1.48-4.35,1.33-6.36-.16-2.01-.56-2.97-1.22-2.9-.98.1-2.22,1.96-3.71,5.58-5.21,12.49-11.72,22.98-19.56,31.49-10.29,10.88-21.17,16.91-32.65,18.09-10.05,1.03-18.84-2.83-26.34-11.6-7.51-8.77-11.92-21.85-13.26-39.24-1.68-21.98,1.94-45.43,10.88-70.34,8.94-24.9,19.65-43.67,32.12-56.32,10.1-10.48,20.5-16.27,31.22-17.37,7.43-.76,13.54,1.31,18.32,6.21,5.7,5.39,9.02,14.2,9.96,26.44.94,12.23-.69,23.28-4.89,33.16-8.13,18.94-17.56,28.97-28.26,30.07-4.92.5-9.18-1.23-12.79-5.2-3.62-3.96-5.66-9.1-6.14-15.41-.67-8.74,1.68-17.71,7.08-26.89.06-.1.13-.19.22-.26Z"/>
    <path class="cls-1" d="m640.52,504.61c-.09-1.14-.4-1.66-.94-1.61-.27,0-.58.52-.9,1.46-1.17,2.9-2.7,6.64-4.67,11.21-1.97,4.56-4.17,9.07-6.64,13.49-2.42,4.41-4.98,8.25-7.58,11.46-2.61,3.27-5.12,5.04-7.54,5.29-2.02.21-3.5-.62-4.49-2.49-.94-1.87-1.56-4.36-1.79-7.58-.36-4.57-.18-9.61.49-15.1.6-5.24,1.44-10.1,2.52-14.67.1-.42.45-.71.87-.77,3.24-.41,6.33-1.38,9.26-2.98,3.14-1.71,5.88-3.79,8.3-6.22,2.38-2.44,4.22-5.2,5.48-8.21,1.25-3,1.79-6.12,1.52-9.28-.54-7.31-3.81-10.69-9.73-10.07-1.21.1-2.79.67-4.75,1.66-1.98,1.04-4.09,2.64-6.37,4.83-2.29,2.18-4.54,5.08-6.69,8.66-2.2,3.53-4.04,7.94-5.53,13.18-.78,2.92-1.44,5.75-1.93,8.57-.02.16-.1.31-.19.44-.23.31-.49.76-.74,1.31-2.11,4.82-4.44,10.27-7.05,16.29-2.61,6.02-5.2,11.16-7.9,15.31-1.57,2.7-3,4.93-4.39,6.69-1.35,1.77-2.52,2.7-3.46,2.8-1.47.16-2.33-1.14-2.51-3.89-.13-1.86.04-4.36.63-7.52.58-3.17,1.65-6.9,3.23-11.21,1.53-4.77,3.28-9.19,5.2-13.18,1.93-4,3.68-7.58,5.21-10.74.94-1.92,1.7-3.58,2.28-4.93.54-1.3.81-2.76.67-4.36-.22-2.75-1.17-5.44-2.87-8.04-1.47-2.23-2.9-4.11-4.3-5.65-.34-.37-.37-.93-.05-1.32.43-.54.73-1.26.89-2.16.22-1.3.31-2.49.22-3.68-.18-2.49-.81-4.41-1.84-5.65-1.08-1.3-2.28-1.87-3.63-1.71-1.75.16-2.96,1.24-3.64,3.11-.67,1.92-.89,3.79-.76,5.65.04.83.4,2.07,1,3.68.08.2.1.42.04.63-.36,1.23-1.09,3.19-2.2,5.81-1.21,2.9-2.56,6.18-4.04,9.76-1.52,3.63-3.05,7.21-4.62,10.69-1.09,2.48-2.07,4.52-2.82,6.21-.05.07-.1.15-.14.22-.21.25-.42.6-.63,1.04-1.17,2.64-2.74,6.27-4.76,10.84-2.06,4.62-4.26,9.24-6.6,13.86-2.37,4.62-4.75,8.61-7.18,11.99-2.37,3.32-4.53,5.14-6.42,5.29-1.08.16-1.97-.16-2.69-.94-.76-.73-1.21-1.97-1.35-3.84-.22-3.17.58-7.63,2.47-13.39l18.28-56.84c.22-.7-.34-1.4-1.08-1.32l-7.1.75c-.39.04-.72.31-.85.67l-11.01,31.31c-1.57,4.77-3.55,10.01-5.97,15.67-2.43,5.65-4.84,10.48-7.22,14.43-2.43,4.15-4.98,8.04-7.72,11.67-2.7,3.63-5.34,5.56-7.9,5.81-3.63.37-5.65-1.92-6.06-6.95-.31-4.36.72-10.23,3.14-17.65l17.13-50.81c.23-.7-.34-1.42-1.07-1.33l-7.22.75c-.43.04-.79.36-.88.79l-.15.65s0,.04,0,.06c-.04.28-.62,1.67-1.7,4.13-1.17,2.55-2.65,5.61-4.4,9.29-1.79,3.63-3.68,7.52-5.74,11.62-3.56,7.08-7.2,14.12-10.57,21.29-.4.86-.8,1.72-1.19,2.58-2.07,4.72-4.22,9.13-6.42,13.28-2.2,4.15-4.35,7.73-6.42,10.69-2.11,3.01-3.81,4.57-5.16,4.72-2.16.21-3.37-1.5-3.68-5.19-.09-1.61.09-3.63.58-6.12.49-2.43,1.12-5.14,1.93-7.99.81-2.8,1.71-5.81,2.7-8.92.98-3.06,1.88-6.07,2.78-8.92l18.33-58c.13-.39.46-.67.87-.7l11.72-1.18c1.48-.15,2.16-.93,2.07-2.28-.13-1.4-.85-2.02-2.2-1.86l-9.18.94c-.73.07-1.3-.62-1.07-1.32l13.01-41.05c.22-.7-.34-1.39-1.08-1.32l-6.51.7c-.4.04-.73.31-.85.7l-14.17,42.81c-.13.37-.46.65-.86.69l-9.85.97c-1.8.21-2.6,1.09-2.46,2.7.08,1.15.85,1.66,2.37,1.5l7.58-.78c.73-.07,1.3.62,1.08,1.32l-1.2,3.84s0,.04-.01.06c-.46,1.21-1.67,3.95-3.62,8.27-1.98,4.36-4.27,9.24-6.82,14.58-2.61,5.35-5.17,10.69-7.76,16.19-.93,1.98-1.94,3.93-2.95,5.87s-2.05,3.87-3.03,5.83c-.98,1.96-1.9,3.96-2.8,5.97-.02.05-.05.1-.07.15-.78,1.76-1.52,3.53-2.33,5.28-2.01,4.62-4.22,9.19-6.6,13.85-2.37,4.62-4.75,8.62-7.13,11.93-2.38,3.38-4.54,5.14-6.42,5.35-1.08.1-2.02-.2-2.74-.93-.72-.73-1.17-2.03-1.3-3.84-.27-3.22.54-7.68,2.43-13.39l18.32-56.85c.22-.7-.34-1.39-1.06-1.32l-7.15.71c-.39.04-.73.31-.85.67l-11.01,31.36c-1.53,4.78-3.5,10.02-5.92,15.67-2.43,5.66-4.84,10.48-7.27,14.37-2.43,4.21-4.98,8.1-7.67,11.73-2.73,3.58-5.34,5.55-7.94,5.81-3.63.36-5.65-1.97-6.01-7.01-.36-4.36.72-10.22,3.14-17.59l17.09-50.87c.23-.7-.33-1.41-1.07-1.33l-7.21.75c-.43.04-.79.36-.89.79l-.15.69c.04.26-.54,1.66-1.71,4.16-1.17,2.54-2.65,5.65-4.39,9.28-1.75,3.63-3.68,7.52-5.75,11.68-1.31,2.62-2.61,5.25-3.94,7.86-1.24,2.42-2.37,5.01-4.14,7.1-.88,1.04-1.91,1.94-3.09,2.63-1.28.71-2.36,1.24-3.25,1.59-.76.29-1.53-.35-1.37-1.14.51-2.5,1.02-5.84,1.53-10,.63-5.14.72-10.48.31-15.93-.36-4.62-1.26-8.46-2.74-11.67-1.48-3.22-3.81-4.62-7.05-4.31-3.68.37-6.87,1.77-9.6,4.1-2.74,2.39-5.17,5.19-7.31,8.57-2.11,3.32-3.95,7-5.56,11.1-1.57,4.1-2.92,7.94-4,11.47-.99,3.37-1.66,7.31-2.07,11.99-.4,4.66-.4,9.28-.04,13.85.45,5.97,1.62,11.16,3.41,15.57,1.84,4.41,4.53,6.43,8.03,6.06,3.23-.31,6.19-1.81,8.83-4.51,2.65-2.7,4.99-5.86,6.91-9.55,1.98-3.63,3.59-7.31,4.9-11.05,1.13-3.33,1.98-6.15,2.49-8.39.1-.41.43-.72.85-.78,2.2-.36,4.48-1.27,6.84-2.76,1.47-.93,2.61-2.49,3.65-3.86,3.25-4.29,5.3-9.44,7.55-14.3.05-.11.1-.22.15-.33,1.93-4.1,3.55-7.52,4.81-10.17-.45,1.19-1.12,3.17-2.07,5.91-.94,2.75-1.93,5.81-3.01,9.13-1.03,3.32-1.97,6.64-2.87,9.97-.9,3.32-1.53,6.27-1.89,8.87-.67,5.6-.85,10.32-.54,14.22.31,4.36,1.26,7.73,2.74,10.11,1.43,2.39,3.59,3.43,6.46,3.11,3.9-.36,7.09-2.07,9.6-5.14,2.47-3.01,4.58-5.76,6.28-8.25.76-.99,1.57-2.28,2.47-3.89.9-1.56,1.8-3.17,2.7-4.77.89-1.56,1.7-3.17,2.46-4.72.76-1.61,1.39-2.75,1.89-3.48-1.21,5.4-1.66,10.33-1.3,14.64.27,3.89,1.21,7.01,2.74,9.24,1.52,2.28,3.72,3.26,6.55,2.96,2.55-.26,5.29-2.34,8.21-6.18,2.87-3.89,5.62-8.25,8.17-13.13,2.56-4.87,4.84-9.8,6.91-14.73.78-1.83,1.57-3.66,2.34-5.5.44-1.03.87-2.06,1.3-3.09.83-2.01,1.84-3.92,2.83-5.85.49-.95.98-1.91,1.46-2.86.91-1.79,1.81-3.57,2.71-5.37.8-1.59,1.58-3.18,2.36-4.78,2.56-5.35,4.98-10.43,7.18-15.26-.9,2.39-1.89,5.19-3,8.41-1.12,3.26-2.25,6.54-3.32,9.86-1.12,3.37-2.16,6.64-3.14,9.86-.98,3.21-1.74,6.12-2.37,8.71-1.17,4.25-2.02,8.46-2.52,12.56-.49,4.05-.63,7.94-.31,11.63.27,3.63,1.08,6.54,2.38,8.71,1.35,2.18,3.32,3.11,6.06,2.85,2.29-.25,4.57-1.76,6.87-4.51,2.34-2.75,4.71-6.38,7.27-10.79,2.02-3.89,3.99-8.15,6.06-12.71,1.16-2.57,2.27-5.17,3.4-7.76,1.16-2.66,2.24-5.34,3.52-7.94,1-2.05,1.96-4.12,2.93-6.18.73-1.55,1.46-3.1,2.18-4.65,1.93-4.1,3.55-7.47,4.84-10.17-.45,1.2-1.16,3.17-2.1,5.92-.94,2.75-1.93,5.81-2.96,9.13-1.03,3.38-2.02,6.7-2.91,10.02-.9,3.32-1.53,6.28-1.89,8.82-.63,5.61-.81,10.38-.54,14.22.36,4.36,1.26,7.73,2.74,10.12,1.47,2.39,3.63,3.42,6.46,3.17,3.9-.42,7.13-2.13,9.6-5.14,2.52-3.06,4.57-5.82,6.33-8.25.72-1.04,1.53-2.34,2.43-3.89.9-1.61,1.79-3.22,2.69-4.78.9-1.61,1.75-3.22,2.52-4.78.76-1.56,1.39-2.75,1.89-3.47-1.21,5.45-1.66,10.32-1.35,14.68.31,3.89,1.21,6.96,2.73,9.24,1.57,2.23,3.73,3.22,6.6,2.96,2.56-.25,5.3-2.34,8.17-6.22,2.92-3.89,5.65-8.25,8.17-13.13,2.56-4.87,4.89-9.76,6.96-14.73,2.07-4.93,3.54-8.46,4.48-10.64v-.05c.76-1.56,1.75-3.58,2.88-6.12,1.48-3.17,2.96-6.54,4.44-10.17,1.48-3.59,2.88-7.06,4.17-10.44,1.09-2.82,1.93-5.14,2.49-6.91.16-.49.65-.79,1.15-.69.52.1,1.12.13,1.83.1.26-.01.52.06.72.23,1.18.99,2.25,2.21,3.23,3.68.99,1.48,1.56,2.48,1.68,2.99.02.08.02.16.01.25-.03.24-.13.52-.35.97-1.57,2.43-3.5,5.86-5.83,10.27-2.34,4.41-4.54,9.44-6.69,15.21-2.2,6.95-3.64,12.92-4.36,17.95-.67,5.03-.89,9.49-.58,13.33.26,3.47.89,6.18,1.92,8.15,1.03,1.98,2.52,2.85,4.4,2.65,2.15-.21,4.04-1.5,5.61-3.89,1.61-2.34,3.41-5.35,5.43-9.03,2.78-4.88,5.47-10.23,8.17-16.04.91-2.01,1.79-3.92,2.62-5.74.45-1,1.94-.67,1.93.43-.01,2.04.05,3.99.2,5.88.54,7.32,2.07,13.34,4.53,18.01,2.47,4.72,5.61,6.9,9.38,6.48,2.82-.31,5.7-2.28,8.61-5.91,2.92-3.63,5.66-7.84,8.21-12.61,2.56-4.72,4.84-9.61,6.87-14.53,1.98-4.93,3.5-8.82,4.49-11.68.22-.52.31-1.19.26-2.13Zm-30.12-4.88c2.24-9.41,4.69-16.19,7.37-20.28,2.78-4.31,5.74-6.64,8.84-6.96,1.47-.16,2.69.41,3.59,1.71.94,1.3,1.48,2.96,1.62,4.98.18,2.34-.27,4.67-1.39,7.11-1.12,2.38-2.65,4.66-4.57,6.85-1.93,2.18-4.27,3.94-7.05,5.39-2.29,1.22-4.71,2-7.25,2.43-.72.12-1.33-.53-1.16-1.24Zm-236.36,25.12c-.45,4.58-1.09,8.65-1.91,12.2-.08.36-.34.66-.69.78-.23.08-.49.03-.73.04-.27,0-.53.04-.79.12-.41.13-.79.37-1.02.74-.24.39-.27.87-.29,1.33-.02.53-.02,1.07.21,1.55.21.45.58.74.96,1.04.33.26.58.62.49,1.05-.59,2.88-1.5,5.94-2.79,9.18-1.35,3.47-2.96,6.69-4.75,9.65-1.8,2.96-3.73,5.45-5.74,7.52-2.02,2.07-4.04,3.17-6.06,3.38-3.68.41-5.71-2.39-6.15-8.36-.36-4.57.09-10.53,1.35-17.95,1.3-7.42,3.05-14.64,5.29-21.64,2.25-7.05,4.76-13.18,7.58-18.42,2.79-5.24,5.61-8.04,8.44-8.3,2.16-.21,3.77.78,4.8,2.96,1.08,2.18,1.71,5.14,2.02,8.77.36,4.62.27,9.4-.22,14.37Z"/>
    <path class="cls-1" d="m608.43,581.53c-.07.38-.16.76-.25,1.15-.07.35-.16.71-.24,1.07,0,.03-.01.06-.02.09-.04.16-.07.3-.11.48-.47,1.9-.97,3.66-1.56,5.31-.13.38-.27.76-.41,1.13,0,.01-.01.04-.02.05-.14.4-.29.8-.44,1.19-1.65,4.22-3.62,7.42-5.97,9.69-.04.04-.1.09-.15.13-.34.24-.76.47-1.18.61-.45.21-.72.21-.81,0l3.35-9.83.4-1.18v-.04s.19-.47.19-.47c.09-.23.17-.46.25-.68.76-2.08,1.33-4.05,1.7-5.89,0-.04.01-.08.02-.12.08-.35.16-.7.23-1.04.08-.39.15-.77.21-1.15.62-3.59.52-6.6-.26-9.07-1.35-4.3-3.59-7.31-6.78-9.03-3.14-1.65-7.31-1.45-12.38.67-8.69,3.56-17.79,11.04-27.31,22.27-.34.4-.69.82-1.03,1.24-2.41.25-4.81.5-7.2.75.38-.42.76-.83,1.15-1.25,11.28-12.05,24.35-22.72,34.93-27.1,13.28-5.5,21.18-4.3,23.6,3.58,1.46,4.74,1.49,10.51.08,17.44Z"/>
    <g>
      <path class="cls-1" d="m630.23,587.75c.22.01.5-.03.82-.1l-.82.1Z"/>
      <path class="cls-1" d="m555.87,588.11c-2.41.25-4.81.5-7.2.75-83.39,8.65-150.97,15.67-151.92,15.79-12.23,1.56-25.41,4.67-27.33,8.11-.36.64-.4,1.33-.11,1.94.34.76,1.38,3.05,14.12,3.05,4.97,0,10.72-.37,16.64-1.08l146.43-18.4h0l1.47-.19,53.05-6.66v-.04s.19-.47.19-.47c.09-.23.17-.46.25-.68.76-2.08,1.33-4.05,1.7-5.89,0-.04.01-.08.02-.12.08-.35.16-.7.23-1.04-16.13,1.68-32.09,3.33-47.56,4.93Zm-148.92,23.24c-7.01.86-13.38,1.34-17.15,1.34-2.03,0-3.3-.13-3.53-.43-.65-.82,7.55-2.55,18.31-3.87,7.01-.87,13.38-1.34,17.15-1.34,2.02,0,3.3.13,3.53.42.66.82-7.54,2.56-18.31,3.88Z"/>
      <path class="cls-1" d="m861.82,557.43l-113.61,15.5-10.16,1.27-71.32,8.96-11.22,1.41h0l-17.05,2.15-7.4.93-.82.1h-.01l-24.4,3.06s.01-.04.02-.05c.14-.37.28-.75.41-1.13.58-1.65,1.09-3.41,1.56-5.31.04-.18.07-.31.11-.48,0-.03.01-.06.02-.09.08-.36.16-.72.24-1.07,8.51-.88,17.06-1.77,25.6-2.66,1.87-.19,3.74-.38,5.61-.58h0c5.76-.6,11.49-1.19,17.21-1.79,3.22-.33,6.42-.67,9.63-1,25.5-2.64,50.39-5.23,73.42-7.61h0c3.79-.39,7.52-.78,11.2-1.16h0c60.11-6.23,110.94-10.46,110.94-10.46Z"/>
    </g>
  </g>
</svg>