<?xml version="1.0" encoding="UTF-8"?>
<svg id="Layer_1" data-name="Layer 1" xmlns="http://www.w3.org/2000/svg" viewBox="0 0 1080 1080">
  <defs>
    <style>
      .cls-1 {
        fill: #fff;
      }
    </style>
  </defs>
  <rect x="-13.6" y="-38.09" width="1107.71" height="1159.85"/>
  <g>
    <g>
      <path class="cls-1" d="m635.97,679.09h-13.4v12.71h15.69v3.76h-20.11v-35.52h19.86v3.78h-15.45v11.49h13.4v3.78Z"/>
      <path class="cls-1" d="m657.89,688.46c0-1.06-.37-1.92-1.11-2.59-.74-.67-2.14-1.25-4.2-1.76-2.85-.67-5.05-1.6-6.58-2.81-1.53-1.2-2.3-2.81-2.3-4.83,0-2.15.84-3.98,2.52-5.51,1.68-1.53,3.86-2.29,6.53-2.29s4.98.81,6.68,2.44c1.7,1.63,2.52,3.52,2.44,5.68l-.05.15h-4.21c0-1.14-.46-2.17-1.38-3.1s-2.08-1.39-3.49-1.39c-1.55,0-2.72.38-3.49,1.15-.77.76-1.15,1.68-1.15,2.73s.33,1.85,1,2.42c.66.57,2.04,1.09,4.11,1.56,2.97.68,5.23,1.65,6.77,2.9,1.54,1.25,2.31,2.89,2.31,4.9,0,2.34-.87,4.25-2.61,5.73-1.74,1.48-4.02,2.22-6.83,2.22-3.09,0-5.53-.85-7.31-2.56-1.78-1.71-2.62-3.7-2.53-5.98l.04-.15h4.21c.07,1.71.66,2.96,1.75,3.74s2.37,1.18,3.83,1.18c1.57,0,2.8-.36,3.69-1.09.89-.72,1.33-1.65,1.33-2.77Z"/>
      <path class="cls-1" d="m682.82,688.46c0-1.06-.37-1.92-1.11-2.59-.74-.67-2.14-1.25-4.2-1.76-2.85-.67-5.05-1.6-6.58-2.81-1.53-1.2-2.3-2.81-2.3-4.83,0-2.15.84-3.98,2.52-5.51,1.68-1.53,3.86-2.29,6.53-2.29s4.98.81,6.68,2.44c1.7,1.63,2.52,3.52,2.44,5.68l-.05.15h-4.21c0-1.14-.46-2.17-1.38-3.1s-2.08-1.39-3.49-1.39c-1.55,0-2.72.38-3.49,1.15-.77.76-1.15,1.68-1.15,2.73s.33,1.85,1,2.42c.66.57,2.04,1.09,4.11,1.56,2.97.68,5.23,1.65,6.77,2.9,1.54,1.25,2.31,2.89,2.31,4.9,0,2.34-.87,4.25-2.61,5.73-1.74,1.48-4.02,2.22-6.83,2.22-3.09,0-5.53-.85-7.31-2.56-1.78-1.71-2.62-3.7-2.53-5.98l.04-.15h4.21c.07,1.71.66,2.96,1.75,3.74s2.37,1.18,3.83,1.18c1.57,0,2.8-.36,3.69-1.09.89-.72,1.33-1.65,1.33-2.77Z"/>
      <path class="cls-1" d="m703.69,696.07c-3.48,0-6.2-1.21-8.15-3.64-1.95-2.42-2.93-5.61-2.93-9.56v-1.07c0-3.79,1-6.92,3.02-9.41,2.01-2.48,4.46-3.72,7.36-3.72,3.24,0,5.67,1.1,7.3,3.29,1.62,2.2,2.43,5.12,2.43,8.76v2.54h-15.51l-.07.12c0,2.65.54,4.8,1.61,6.45,1.08,1.65,2.72,2.48,4.93,2.48,1.49,0,2.81-.23,3.93-.69,1.13-.46,2.1-1.1,2.9-1.92l1.73,3.12c-.87.91-2.01,1.68-3.43,2.31-1.42.63-3.13.94-5.13.94Zm-.69-23.62c-1.54,0-2.81.65-3.82,1.94-1.01,1.29-1.63,2.95-1.85,4.96l.04.12h10.94v-.39c0-1.92-.43-3.51-1.3-4.76-.87-1.25-2.2-1.88-4.01-1.88Z"/>
      <path class="cls-1" d="m722.54,669.16l.31,3.93c.81-1.4,1.82-2.48,3.04-3.26,1.22-.77,2.6-1.16,4.16-1.16,2.62,0,4.64.83,6.07,2.5,1.43,1.67,2.15,4.24,2.15,7.72v16.66h-4.42v-16.57c0-2.33-.42-3.98-1.27-4.95s-2.13-1.46-3.87-1.46c-1.36,0-2.51.3-3.46.89-.95.59-1.7,1.43-2.25,2.5v19.59h-4.42v-26.4h3.94Z"/>
      <path class="cls-1" d="m751.75,662.8v6.37h4.6v3.56h-4.6v16.03c0,1.24.24,2.11.71,2.61.47.5,1.09.76,1.87.76.25,0,.54-.04.85-.11.31-.07.58-.15.78-.23l.61,3.29c-.33.29-.81.53-1.46.72-.64.19-1.28.28-1.91.28-1.79,0-3.22-.59-4.28-1.77s-1.59-3.03-1.59-5.55v-16.03h-3.86v-3.56h3.86v-6.37h4.42Z"/>
      <path class="cls-1" d="m766.76,662.41h-4.42v-4.9h4.42v4.9Zm0,33.16h-4.42v-26.4h4.42v26.4Z"/>
      <path class="cls-1" d="m789.38,695.56c-.15-.8-.27-1.5-.35-2.11-.08-.61-.13-1.22-.15-1.84-.82,1.27-1.89,2.33-3.22,3.18-1.32.85-2.75,1.28-4.27,1.28-2.53,0-4.45-.7-5.77-2.11s-1.98-3.35-1.98-5.82.94-4.49,2.81-5.92c1.88-1.42,4.42-2.13,7.63-2.13h4.8v-2.61c0-1.54-.43-2.77-1.3-3.67-.87-.9-2.09-1.35-3.68-1.35-1.43,0-2.59.39-3.47,1.17-.88.78-1.32,1.72-1.32,2.81l-4.19.05-.05-.15c-.11-1.92.72-3.68,2.48-5.27,1.76-1.59,4.02-2.39,6.8-2.39s4.96.76,6.64,2.28c1.67,1.52,2.51,3.71,2.51,6.58v12.71c0,.94.05,1.85.13,2.73s.25,1.74.49,2.59h-4.55Zm-7.33-3.51c1.6,0,3.04-.45,4.33-1.34,1.29-.89,2.12-1.92,2.51-3.07v-4.29h-4.95c-1.78,0-3.2.49-4.27,1.46-1.07.98-1.6,2.12-1.6,3.44,0,1.17.34,2.1,1.01,2.78.67.68,1.67,1.02,2.98,1.02Z"/>
      <path class="cls-1" d="m805.41,695.56h-4.42v-38.06h4.42v38.06Z"/>
      <path class="cls-1" d="m827.22,688.46c0-1.06-.37-1.92-1.11-2.59-.74-.67-2.14-1.25-4.2-1.76-2.85-.67-5.05-1.6-6.58-2.81-1.53-1.2-2.3-2.81-2.3-4.83,0-2.15.84-3.98,2.52-5.51,1.68-1.53,3.86-2.29,6.53-2.29s4.98.81,6.68,2.44c1.7,1.63,2.52,3.52,2.44,5.68l-.05.15h-4.21c0-1.14-.46-2.17-1.38-3.1s-2.08-1.39-3.49-1.39c-1.55,0-2.72.38-3.49,1.15-.77.76-1.15,1.68-1.15,2.73s.33,1.85,1,2.42c.66.57,2.04,1.09,4.11,1.56,2.97.68,5.23,1.65,6.77,2.9,1.54,1.25,2.31,2.89,2.31,4.9,0,2.34-.87,4.25-2.61,5.73-1.74,1.48-4.02,2.22-6.83,2.22-3.09,0-5.53-.85-7.31-2.56-1.78-1.71-2.62-3.7-2.53-5.98l.04-.15h4.21c.07,1.71.66,2.96,1.75,3.74,1.09.79,2.37,1.18,3.83,1.18,1.57,0,2.8-.36,3.69-1.09.89-.72,1.33-1.65,1.33-2.77Z"/>
    </g>
    <path class="cls-1" d="m366.71,526.17c-9,0-17.95,1.43-25.4,5.61-1.04-.97-2.19-1.8-3.42-2.49-5.7-3.17-12.53-2.68-18.08.2,4.42,3.41,11.08,7.17,16.52,5.65-1.67,1.36-3.23,2.93-4.64,4.69-2.17,2.73-3.86,5.02-5.14,7.15-1.45-.26-2.93-.4-4.38-.31-6.48.37-12.03,4.42-15.26,9.86,5.61.51,13.33.15,17.08-4.2-.8,2.44-1.21,5.02-1.34,8.14-.13,2.73.35,5.28,1.17,7.57-.89,1.21-1.65,2.51-2.19,3.89-2.47,6.09-1.28,12.96,2.15,18.24,2.43-4.14,4.96-9.92,4.34-14.85.15.18.3.33.46.51,3.01,3.41,6.29,4.69,8.84,4.99.74,1.56,1.63,3.04,2.75,4.33,4.27,4.97,10.84,6.93,17.04,6.18-2.69-4.27-6.94-9.44-11.84-10.78,1.43-.48,2.97-1.25,4.53-2.49,1.02-.53,1.97-1.12,2.86-1.85,5.12-4.07,7.37-10.63,6.96-16.94-6.09,3.52-14.13,10.1-11.03,17.82-1.02-6.25,3.99-10.85,8.93-14.1-.41,5.61-3.29,10.96-7.74,14.57-.72.48-1.43.9-2.19,1.28-1.45.68-2.9,1.14-4.47,1.36h-.02s-.02-.02-.04,0c-.61.09-1.24.13-1.86.15,0,0-.02-.02-.04,0h-.33c-4.57,0-8.52-1.85-11.75-5.5-.78-.88-1.45-1.8-2.02-2.77,0-.04-.02-.07-.07-.09-.11-.15-.2-.31-.24-.46-1.65-2.9-2.45-6.23-2.45-9.92v-.18c1.43,5.63,9.02,8.69,14.72,10.12-1.11-5.79-4.83-11.13-10.73-13.53-1.13-.46-2.32-.81-3.53-1.03,1.06-5.35,4.01-10.25,8.87-14.63,3.14-2.84,6.55-4.97,10.19-6.38-6.03,3.72-5.25,14.26-3.68,21.63,5.33-3.92,8.87-10.54,8.3-18.15-.11-1.56-.41-3.12-.85-4.64,2.3-.53,4.68-.81,7.13-.81,9.54,0,17.93,4.09,24.86,12.15,6.87,8.03,10.36,17.76,10.36,28.91,0,16.08-6.83,30.67-20.29,43.39-13.42,12.67-29.57,19.1-48.03,19.1s-32.23-5.59-43.42-16.66c-11.18-11.09-16.84-25.88-16.84-44.05,0-19.36,6.83-35.95,20.29-49.29,13.01-12.94,29.8-18.88,52.46-21.98l-.09-.02c-9.34.81-16.17-.35-20.53-1.08-11.4-1.96-18.88-5.76-26.53-13.55-7.63-7.79-11.53-18.13-11.53-30.76s1.82-26.16,8.8-33.6c6.98-7.44,17.8-6.25,29.37-6.25,7.35,0,15.63,3.19,28.55,7.57,12.66,4.31,25.84,4.64,34.59,4.64,15.32,0,27.59-6.16,38.52-14.83-5.22,2.55-10.27,3.83-14.98,3.83-6.7,0-16.6-2.16-30.22-6.62-13.05-4.29-23.93-6.47-32.34-6.47-20.59,0-39.38,6.27-55.88,18.64-16.3,12.28-24.58,26.18-24.58,41.41,0,20.62,12.88,32.89,39.91,38.51l7.61.99-7.04,3.23c-18.42,6.56-32.84,16-42.77,28.01-9.91,11.9-14.91,25.11-14.91,39.21,0,18.09,7.07,33.6,20.9,46.1,13.87,12.52,32.34,18.92,54.82,18.92,24.95,0,45.89-8.65,62.23-25.66,16.34-17.01,24.6-35.91,24.6-56.17,0-10.08-3.29-18.55-9.78-25.3-6.5-6.73-15.32-10.14-26.21-10.14Zm-28.46,54.72s2.04.68,4.96.2c4.16.95,7.59,4.62,10.21,8.32-6.13-.15-12.14-3.39-15.91-8.58.26.04.5.07.74.07Zm-11.53-7.37c.74,4.05-.93,8.52-2.93,12.37-2.49-5.43-2.43-11.97.11-17.58.74,1.91,1.71,3.65,2.82,5.21Zm9.49-4.77c-5.09-1.58-10.49-4.14-11.73-9.11.07-.77.15-1.54.3-2.31,5.38,2.09,9.62,6.29,11.42,11.42Zm-11.4-18.48c-3.16,3.98-8.93,4.64-14.09,4.44,3.73-4.64,9.6-7.41,15.69-7.5-.63,1.03-1.15,2.05-1.6,3.06Zm13.29-16.46c-4.73,1.58-9.88-.95-14.11-3.83,5.53-1.94,11.86-1.19,17.04,1.94-1.02.57-1.99,1.19-2.93,1.89Zm3.51,19.27c-1.06-6.6-1.17-14.08,3.84-17.62.63-.22,1.26-.4,1.91-.55.72,7.02-1.41,13.77-5.74,18.17Z"/>
    <path class="cls-1" d="m443.2,561.92c19.33-28.46,33.24-50.88,41.33-66.59,7.97-15.56,12.06-28.04,12.06-37.09,0-6.51-1.69-11.79-5.05-15.64-3.27-3.81-7.78-5.66-13.67-5.66-11.48,0-22.72,6.62-33.47,19.72-10.78,13.21-16.29,28.12-16.29,44.37v68.13c0,1.39-.39,4.12-3.77,12.25-2.39,5.82-4.66,10.63-6.66,14.29-2.04,3.66-4.04,6.93-5.97,9.67-1.62,2.35-3.39,4.81-5.32,7.43,6.59-8.17,11.86-15.02,16.1-22.42l5.62-9.59v41.71c0,11.67,1.62,16.06,2.93,17.72,1.85,2.31,4.58,3.43,8.36,3.43,12.67,0,24.11-9.9,37.25-27-5.51,6.55-10.59,11.02-15.02,13.9-4.43,2.85-8.2,4.08-11.05,4.08-3.5,0-5.89-1.93-6.74-5.47-.65-2.77-.96-7.78-.96-15.29v-51.46l.35-.5Zm-.35-71.64c0-14.6-.72-27.71,4.86-36.34,5.74-8.9,16.48-12.04,24.95-12.04,6.74,0,14.75,3.74,14.75,21.65,0,8.78-2.73,19.26-8.09,31.16-5.28,11.71-16.37,30.7-32.93,56.46l-3.54,5.51v-66.4Z"/>
    <path class="cls-1" d="m479.89,612.21c5.43-7.28,12.4-16.44,16.26-23.96l4.11-8.69v42.4c0,8.34.81,14.21,2.39,17.34,1.39,2.74,5.05,4.15,10.94,4.15,5.51,0,11.86-2.66,18.95-7.87,6.32-4.7,11.21-12.48,17.3-20.78h0c-11.52,14.02-20.92,19.49-26.77,19.49-3.54,0-6.01-1.72-6.93-4.78-.77-2.51-1.12-7.24-1.12-14.53v-53.56l-15.02,7.63c-3.2,12.8-10.66,29.64-20.1,43.15h0Z"/>
    <g>
      <path class="cls-1" d="m676.89,612.94c5.39-7.36,13.72-17.13,16.76-24.57l3.7-9.17v42.65c0,8.42.81,14.28,2.35,17.43,1.39,2.75,5.08,4.17,10.94,4.17,5.51,0,11.86-2.68,18.99-7.91,6.01-4.49,10.32-12.01,16.1-19.76h0c-10.86,13.02-20.03,18.46-25.57,18.46-3.54,0-6.01-1.69-6.97-4.8-.73-2.48-1.12-7.28-1.12-14.6v-53.82l-14.98,7.67c-3.2,12.79-11.65,29.83-20.19,44.24h0Z"/>
      <path class="cls-1" d="m748.95,618.31,0,0v-.04m-4.08-9.99s-.04.12-.08.16c.08-.08.15-.2.23-.28-.04.04-.08.08-.15.12Z"/>
    </g>
    <g>
      <path class="cls-1" d="m749.19,612h0c9.98-14.4,19.22-33.49,26.77-50.9,11.44,4.93,20.3,7.32,27.08,7.32s12.13-2.23,16.95-6.66l.08.04c-7.01,8.4-12.79,17.06-17.18,25.73-4.78,9.32-7.16,19.72-7.16,30.89,0,3.85,1.35,7.47,3.97,10.78,2.7,3.47,5.85,5.24,9.36,5.24,5.16,0,10.17-2,14.83-5.89,4.2-3.47,10.48-7.85,15.98-15.05h0c-13.25,19.26-25.3,29.96-38.32,29.96s-19.8-7.05-19.8-21.49c0-12.17,6.28-25.65,18.68-40.1l3.66-4.31-5.51,1.16c-2.12.42-5.97.65-11.52.65-3.51,0-7.24-.69-11.09-2l-1.62-.58-.73,1.54c-5.47,11.29-15.87,22.9-24.42,33.68"/>
      <path class="cls-1" d="m744.87,609.02s-.04.12-.08.15c.08-.08.15-.19.23-.27-.04.04-.08.08-.15.12Zm4.08,9.82v-.04m0,.04"/>
    </g>
    <path class="cls-1" d="m675.24,615.13c-12.75,17.06-22.69,16.09-25.66,16.09s-5.7-.93-8.05-2.75c-1.54-1.23-5.2-5.97-20.34-32.12l-.62-1.14.62-1.1c5.32-9.69,9.01-15.57,11.25-17.99,5.12-5.5,10.48-6.05,16.29,2.33,3.31-6.75,4.29-7.75,8.74-12.53-2.62-3.01-5.93-4.49-10.05-4.49-3.62,0-7.28,1.23-10.78,3.68-3.58,2.41-9.28,10.12-16.95,22.9l-1.66,2.75-11.71-20.27c-3.2-5.63-6.86-8.34-11.21-8.34-1.96,0-5.7,1.65-12.4,9.61-5.51,6.56-15.98,19.88-29.92,40.11h0c4.39-5.5,10.74-13.02,18.37-22.03,11.79-13.92,15.64-16.01,17.72-16.01,2.62,0,5.08,2.54,8.05,8.3l12.59,22.81-9.98,16.67c-5.32,8.72-10.36,12.99-15.48,12.99-3.43,0-6.93-3.17-10.9-9.9-1.95,3.44-4.51,7.27-7.55,11.68,2.2,4.74,6.36,7.07,12.79,7.07,3.58,0,7.01-1.14,10.55-3.51,3.54-2.37,7.59-7.07,12.06-13.97,4.51-7.24,7.63-12.06,9.21-14.18l1.66-2.24,1.46,2.41c8.51,14.09,14.21,22.98,16.91,26.41,2.43,3.05,5.28,4.53,8.78,4.53,4.2,0,9.59-2.67,16.02-7.87,6.16-5.04,14.26-11.01,20.19-19.9h0Z"/>
    <g>
      <path class="cls-1" d="m704.81,532.46s0,0,0,0c0,0,0,0,.01,0,0,0,0,0-.01,0Z"/>
      <path class="cls-1" d="m711.31,520.22l-6.56-13.6-6.49,13.67c-.67,1.42-1.03,3.04-.87,4.64.39,3.94,3.21,7.22,6.9,7.51-2.34-.24-4.25-2.05-4.53-4.4-.11-.89.12-1.85.65-2.78l4.36-7.53,4.4,7.49c.62,1.05.84,2.19.63,3.22-.45,2.17-2.3,3.79-4.49,4,3.5-.26,6.22-3.2,6.84-6.86.31-1.83-.04-3.72-.83-5.35Z"/>
    </g>
    <g>
      <path class="cls-1" d="m507.39,531.85s0,0,0,0c0,0,0,0,.01,0,0,0,0,0-.01,0Z"/>
      <path class="cls-1" d="m513.89,519.61l-6.56-13.6-6.49,13.67c-.67,1.42-1.03,3.04-.87,4.64.39,3.94,3.21,7.22,6.9,7.51-2.34-.24-4.25-2.05-4.53-4.4-.11-.89.12-1.85.65-2.78l4.36-7.53,4.4,7.49c.62,1.05.84,2.19.63,3.22-.45,2.17-2.3,3.79-4.49,4,3.5-.26,6.22-3.2,6.84-6.86.31-1.83-.04-3.72-.83-5.35Z"/>
    </g>
  </g>
</svg>