<?xml version="1.0" encoding="UTF-8"?>
<svg id="Layer_1" data-name="Layer 1" xmlns="http://www.w3.org/2000/svg" viewBox="0 0 1080 1080">
  <defs>
    <style>
      .cls-1, .cls-2 {
        fill: #fff;
      }

      .cls-2 {
        fill-rule: evenodd;
      }
    </style>
  </defs>
  <rect x="-13.6" y="-38.09" width="1107.71" height="1159.85"/>
  <g>
    <g>
      <path class="cls-1" d="m292.92,615.07v7.91h-51.5c2.21-2.1,3.48-5.05,3.48-8.11v-63.1c0-3.06-1.27-6-3.48-8.12h51.49v7.93l-2.93-3.16c-2.13-2.3-5.15-3.62-8.29-3.62h-29.01v37.95h12.53c3.14,0,6.16-1.32,8.29-3.61l2.93-3.17v14.69l-2.92-3.15c-2.13-2.3-5.15-3.61-8.29-3.61h-12.54v37.94h29.03c3.13-.01,6.15-1.32,8.28-3.62l2.93-3.15Z"/>
      <path class="cls-1" d="m363.36,543.27l-.6.5c-2.49,2.09-3.92,5.16-3.92,8.4v71.04l-54.79-75.81-.05.03v66.91c0,3.24,1.43,6.32,3.92,8.4l.6.5h-10.69l.59-.5c2.49-2.09,3.92-5.16,3.92-8.4v-62.04c0-3.24-1.43-6.31-3.92-8.4l-.59-.5h13.52l45.83,63.41v-54.64c0-3.24-1.43-6.31-3.92-8.4l-.59-.5h10.69Z"/>
      <path class="cls-1" d="m436.39,607.95l-.36.74c-.07.15-7.1,14.15-27.08,14.53h0s-1.65.01-1.65.01v-.02c-1.08-.03-2.16-.11-3.24-.24-3.7-.43-7.32-1.37-10.75-2.79-3.67-1.49-7.1-3.53-10.15-6.04-3.61-2.89-6.61-6.46-8.85-10.5-6.86-12.68-6.86-27.96,0-40.64,2.24-4.04,5.24-7.61,8.85-10.5,3.05-2.51,6.48-4.55,10.15-6.04,3.44-1.42,7.06-2.36,10.76-2.79,1.33-.17,2.68-.26,4.03-.26h1.09c2.31,0,5.1.83,7.37,1.26,4.46.85,12,4,13.61,5.58v.02c1.81,1.82,2.18,4.43.8,5.95-1.45,1.59-4.27,1.39-6.32-.47-.79-.71-6.3-7.5-9.4-9.03-2.21-1.1-4.65-1.67-7.12-1.67h-.02l-.27.02c-4.74.05-9.38,1.38-13.43,3.84-3.01,1.86-5.64,4.26-7.75,7.09-2.42,3.09-4.38,6.51-5.84,10.15-4.51,11.01-4.51,23.33,0,34.34,1.46,3.65,3.43,7.07,5.86,10.17,2.14,2.85,4.79,5.26,7.83,7.12,4.11,2.47,8.81,3.78,13.61,3.8h.2c19.39-.09,26.15-13.47,26.22-13.6l.36-.74,1.49.71Z"/>
      <path class="cls-1" d="m500.36,614.86c0,3.07,1.27,6.02,3.49,8.13h-14.75c2.22-2.11,3.49-5.06,3.49-8.13v-35.14l-.46.61c-4.6,6.23-11.96,9.61-19.71,9.05-8.1-.64-15.98,3.46-20.09,10.44l-.04.06v14.98c0,3.07,1.27,6.02,3.49,8.13h-14.75c2.22-2.11,3.49-5.06,3.49-8.13v-63.09c0-3.06-1.27-6.01-3.49-8.12h14.75c-2.22,2.11-3.49,5.06-3.49,8.12v46.12l.45-.61c4.6-6.23,11.97-9.62,19.72-9.05,8.21.57,15.91-3.46,20.09-10.51l.03-.06v-25.88c0-3.07-1.27-6.02-3.49-8.13h14.76c-2.22,2.11-3.49,5.06-3.49,8.13v63.08Z"/>
      <path class="cls-1" d="m637.51,543.52l-.07.06c-2.55,2.14-4.01,5.27-4.01,8.59v70.26l-54.34-75.17-.18-.15-.32.18v67.05c0,3.32,1.46,6.45,4.01,8.59l.07.06h-9.32l.07-.06c2.55-2.14,4.01-5.27,4.01-8.59v-62.04c0-3.32-1.46-6.45-4.01-8.59l-.07-.06h12.71l46.21,63.93v-55.41c0-3.32-1.46-6.45-4.01-8.59l-.07-.06h9.32Z"/>
      <path class="cls-1" d="m706.91,543.65v7.92l-2.93-3.15c-2.13-2.3-5.15-3.62-8.29-3.62h-17.71v70.06c0,3.07,1.27,6.02,3.49,8.13h-14.75c2.22-2.11,3.49-5.06,3.49-8.13v-70.06h-17.71c-3.14,0-6.16,1.32-8.29,3.62l-2.93,3.15v-7.92h65.63Z"/>
      <path class="cls-1" d="m762.69,615.07v7.91h-51.51c2.22-2.1,3.49-5.05,3.49-8.11v-63.1c0-3.06-1.27-6-3.49-8.12h51.5v7.93l-2.94-3.16c-2.12-2.3-5.15-3.62-8.28-3.62h-29.02v37.95h12.53c3.14,0,6.16-1.32,8.29-3.61l2.94-3.17v14.69l-2.92-3.15c-2.13-2.3-5.15-3.61-8.29-3.61h-12.55v37.94h29.03c3.14-.01,6.16-1.32,8.28-3.62l2.94-3.15Z"/>
      <path class="cls-1" d="m836.45,570.67c-1.14-3.18-2.69-6.2-4.6-8.97-2.84-4.06-6.38-7.49-10.55-10.2-3.55-2.2-7.37-3.97-11.35-5.27-3.75-1.19-7.64-1.97-11.56-2.32-1.5-.17-3.04-.25-4.56-.25h-25.37c2.22,2.11,3.49,5.06,3.49,8.13v63.08c0,3.07-1.27,6.02-3.49,8.13h25.41c1.41,0,2.82-.07,4.2-.21,8.2-.65,16.23-3.28,23.21-7.61,7-4.53,12.39-11.34,15.17-19.18,2.83-8.17,2.83-17.16,0-25.33Zm-7.14,23.04l-.07.25h0c-.8,2.57-1.85,5.08-3.13,7.46-2.03,3.77-4.59,7.22-7.61,10.27-2.8,2.72-5.98,4.99-9.48,6.75-4.68,2.22-9.89,3.4-15.08,3.4h-14.21v-77.04h14.12c5.24-.01,10.47,1.17,15.17,3.4,3.5,1.76,6.69,4.03,9.48,6.75,3.02,3.05,5.58,6.5,7.62,10.27,4.8,8.63,5.97,19.01,3.2,28.49Z"/>
      <path class="cls-1" d="m569.76,623.25l-1.74-1.6c-1.22-1.12-2.17-2.5-2.79-4.04l-29.45-74.19-24.84,62.53h0c-.86,2.13-1.42,4.37-1.67,6.65-.11,1.28-.07,2.56.11,3.82.02.15.04.3.07.45.84,3.88,2.95,7.04,5.13,8.49.54.37,1.09.62,1.62.76,1.31.33,2.93.03,3.79-1.05.86-1.08.75-2.74.16-3.92-.53-1.05-1.6-2.05-3.02-2.86-1.29-.73-2.47-1.66-3.31-2.89-.64-.92-1.16-1.95-1.52-3.04-.59-1.85-.54-3.83.13-5.64.02-.04.03-.08.04-.11v-.04s4.39-11.03,4.39-11.03c.51-.55,4.1-4.1,12.43-3.9,5.33.12,10.58-1.39,15.02-4.33l11.19,28.19c1.08,2.7.37,5.78-1.77,7.75h16.03Zm-40.43-33.27c-.41-.02-.82-.04-1.23-.04-3.51,0-6.97.89-10.05,2.59l14.16-35.67,11.46,28.86c-4.21,2.88-9.23,4.37-14.34,4.26Z"/>
      <path class="cls-1" d="m509.45,616.87c-.04-.15-.07-.3-.1-.45h.03c.02.15.04.3.07.45Z"/>
    </g>
    <g>
      <path class="cls-2" d="m590.77,410.78c-2.21,4.06-5.13,3.77-8.17,5.34-3.04,1.56-.23,4.47-3.53,6.17-3.31,1.7.02,4.54-2.46,6.06-2.47,1.52.57,3.35-2.08,4.82-2.65,1.46.28,2.85-6.13,3.26-1.21.07-2.81.06-4.61-.03,1.83,1.65,3.17,3.29,3.6,4.68,1.64,5.27-.59,2.77-.09,5.8.67,4.05-1.99,2.14-2.68,5.22-.78,3.53-4.3,2.58-6.01,4.59-1.75,2.06-3.36.06-5.49,2.12-1.86,1.8-4.47,1.18-6.63-.85-2.31-2.18-3.14-7.78-4.12-14-.1-2.87-1.62-5.14-3.46-5.14s-3.36,2.27-3.46,5.15c-.97,6.21-1.8,11.82-4.11,13.99-2.16,2.03-4.77,2.66-6.63.85-2.13-2.06-3.75-.06-5.49-2.12-1.71-2.01-5.24-1.06-6.01-4.59-.68-3.07-3.35-1.17-2.68-5.22.5-3.03-1.73-.54-.1-5.8.44-1.39,1.77-3.03,3.6-4.68-1.79.09-3.39.1-4.61.03-6.4-.42-3.47-1.8-6.12-3.26-2.66-1.47.39-3.3-2.09-4.82-2.47-1.52.85-4.36-2.45-6.06-3.3-1.7-.49-4.61-3.53-6.17-3.04-1.57-5.97-1.28-8.17-5.34-2.21-4.06,4.09-7.8,18.52-3.74,13.32,3.75,27.79,15.44,31.32,18.89,0,0,0-.03,0-.04.56.64,1.26,1.02,2,1.02s1.45-.38,2.01-1.02c0,0,0,.03,0,.04,3.53-3.45,18-15.14,31.32-18.89,14.43-4.07,20.73-.32,18.52,3.74Z"/>
      <g>
        <path class="cls-1" d="m537.7,409.7c0-2.92,2.09-5.38,4.96-6.18-.63-.17-1.29-.27-1.98-.27-3.83,0-6.94,2.89-6.94,6.45s3.11,6.45,6.94,6.45c.69,0,1.35-.1,1.98-.27-2.87-.79-4.96-3.26-4.96-6.18Z"/>
        <path class="cls-1" d="m538.02,409.7c0-2.69,1.94-5.1,4.72-5.87l1.11-.3-1.11-.3c-.67-.19-1.37-.29-2.07-.29-4,0-7.26,3.04-7.26,6.76s3.26,6.76,7.26,6.76c.7,0,1.4-.1,2.07-.28l1.11-.3-1.11-.31c-2.78-.77-4.72-3.18-4.72-5.87Zm2.65,6.13c-3.65,0-6.62-2.75-6.62-6.13s2.97-6.13,6.62-6.13c.27,0,.53.02.8.04-2.46,1.12-4.09,3.49-4.09,6.08s1.63,4.97,4.09,6.08c-.27.03-.53.04-.8.04Z"/>
      </g>
      <path class="cls-1" d="m597.91,457.99s-.01.03-.01.04c-.11.33-.22.65-.33.98,0,.03-.01.05-.03.08-.07.2-.14.4-.21.6-8.66,23.83-37.42,35.44-61.18,34.25-15.26-.76-29.72-6.61-42.85-14.12-13.64-7.8-26.16-17.35-38.51-27.01-25.03-19.57-51.67-40.17-84.47-43.23-8.01-.75-16.21-.41-24.05,1.48-7.31,1.77-15.01,5.35-18.39,12.5-3.48,7.37.61,14.47,7.05,18.39,5.71,3.48,12.45,4.43,19.07,4.93,1.18.09,2.38-.02,3.5-.4,3.18-1.08,6.19-.81,7.7.51.9.78,1.56,2.2,1.24,3.55-.31,1.34-1.52,2.34-2.69,2.63-1.78.45-4.32-.52-6.54-2.63-1.09-1.04-2.46-1.7-3.95-1.82-5.38-.43-10.76-1.2-15.74-3.32-5.37-2.27-10.58-6.42-12.32-12.2-1.8-5.96.92-12.21,5.25-16.36,5.02-4.81,11.98-7.11,18.69-8.33,7.21-1.31,14.59-1.52,21.88-.77,30.5,3.12,55.92,20.94,79.41,39.25,12.14,9.47,24.21,19.03,37.27,27.23,12.61,7.92,26.33,14.69,41.17,17.05,13.21,2.1,27.05.17,39.26-5.26,10.92-4.86,20.93-12.78,26.11-23.78.5-1.05.95-2.13,1.35-3.23.08-.22.16-.43.23-.65,0-.01,0-.02.01-.03.17-.03.34-.06.51-.08h.01s.03,0,.04,0c.49-.08.99-.16,1.48-.24.02,0,.03,0,.05,0Z"/>
      <path class="cls-1" d="m725.91,386.03c-3.89-3.36-9.3-4.18-14.19-2.86-3.6.97-7.02,3.22-8.48,6.64-.19.44-.47.84-.83,1.17-2.69,2.36-3.98,5.28-3.49,7.28.29,1.17,1.27,2.38,2.6,2.71,1.35.33,2.77-.32,3.56-1.21,1.35-1.52,1.64-4.61.52-7.86-.41-1.17-.11-2.46.7-3.4,2.27-2.65,6.15-3.94,9.63-4.01,6.08-.12,11.13,3.72,12.91,9.51,4.4,14.27-9.86,24.76-20.44,31.02-25.78,15.28-55.63,21.83-84.85,26.86-7.2,1.24-14.42,2.42-21.65,3.57l-3.45.48.48-1.64c.03-.13.06-.27.09-.41,2.4-10.71,1.16-22.3-4.15-31.95-1.72-3.14-3.85-5.96-6.27-8.5-2.86-3-6.13-5.59-9.67-7.82h0c-4.74-3.01-9.93-5.37-15.16-7.18-12.82-4.45-26.77-5.98-40.14-3.41-9.27,1.78-19.03,5.09-27.31,10.33h-.02c-3.07,1.94-5.93,4.14-8.48,6.62-.61.59-1.21,1.2-1.78,1.82-3.98,4.33-6.94,9.62-7.66,15.51-.73,5.93.86,11.98,3.98,17.03,6.85,11.06,19.78,17.46,32.26,19.67,16.67,2.95,33.63-.11,50.13-2.75,9.65-1.54,19.3-3.05,28.95-4.59.69-.11,1.39-.22,2.08-.33.01,0,.03,0,.04,0,.17-.03.34-.06.51-.08h.01s.03,0,.04,0c.49-.08.99-.16,1.48-.24.02,0,.03,0,.05,0,1-.16,2.01-.32,3.02-.48,5.05-.81,10.09-1.63,15.13-2.45,30.3-4.97,61.28-10.94,88.55-25.7,11-5.96,25.36-14.43,26.78-28.26.57-5.52-1.21-11.37-5.48-15.07Zm-128.88,68.21v.04s-.57,1.8-.57,1.8l-.07.22-.31.06-1.01.18h-.07c-6.45,1.03-12.9,2.03-19.36,3.06-16.51,2.64-33.31,6.26-50.11,5.64-13.74-.51-28.12-4.61-37.77-14.96-4.28-4.6-7.29-10.47-7.63-16.81-.34-6.29,2.11-12.24,6.1-17.03.9-1.08,1.86-2.11,2.88-3.1,3.04-2.97,6.53-5.51,10.29-7.66,7.3-4.19,15.6-6.94,23.46-8.58,13.35-2.78,27.24-1.35,40.09,3.05,4.5,1.54,8.97,3.51,13.13,5.94,3.96,2.32,7.63,5.07,10.79,8.33,2.8,2.86,5.19,6.11,7.04,9.78,4.57,9.1,5.56,20.06,3.12,30.03Z"/>
      <path class="cls-1" d="m597.57,459.02l-.02.08h0s.02-.05.03-.08Z"/>
      <circle class="cls-1" cx="567.38" cy="454.96" r="1.59"/>
      <circle class="cls-1" cx="585.16" cy="418.76" r="1.59"/>
      <circle class="cls-1" cx="514.35" cy="457.82" r="1.27"/>
      <circle class="cls-1" cx="491.81" cy="418.13" r=".95"/>
      <polygon class="cls-1" points="467.59 439 467.59 439 467.59 439 467.59 439"/>
      <polygon class="cls-1" points="467.59 439 467.59 439 467.59 439 467.59 439"/>
      <polygon class="cls-1" points="532.37 474.56 532.37 474.57 532.37 474.56 532.37 474.56"/>
    </g>
    <g>
      <path class="cls-1" d="m426.89,667.76v-1.06h9.57v1.06l-4.59.39h-.62l-4.37-.39Zm12.34,23.11c4.98,0,7.2-2.64,7.2-9.53v-14.63h1.3v15.61c0,6.9-3.14,10.21-8.71,10.21-5.24,0-8.65-2.88-8.65-9.91v-4.14c0-3.93,0-7.88-.09-11.76h2.22c-.09,3.86-.09,7.76-.09,11.76v3.54c0,6.54,2.68,8.86,6.82,8.86Zm7.42-22.72l-4.51-.39v-1.06h8.92v1.06l-3.79.39h-.62Z"/>
      <path class="cls-1" d="m456.69,691.99c.08-1.69.11-5.55.11-7.88v-1.81c0-2.4-.04-4.34-.11-6.08l-3.29-.14v-.98l4.57-1.18.45.29.23,4.17v5.73c0,2.33.04,6.19.11,7.88h-2.07Zm4.92-.98v.98h-8.03v-.98l3.9-.44h.51l3.62.44Zm8.82-10.62v3.72c0,2.4.04,6.19.11,7.88h-2.07c.08-1.69.11-5.48.11-7.88v-3.62c0-3.69-1.28-4.99-3.51-4.99-1.72,0-3.97.75-6.71,3.68h-.65v-1.15h1.18l-.88.36c2.47-3.12,5.3-4.58,7.78-4.58,2.96,0,4.63,1.79,4.63,6.59Zm-.66,10.18l3.62.44v.98h-8.03v-.98l3.91-.44h.51Z"/>
      <path class="cls-1" d="m484.41,691.09c2.2,0,3.85-.91,5.69-3.28l.34.75c-1.69,2.71-3.81,3.93-6.43,3.93-4.44,0-7.5-3.79-7.5-9.1,0-5.88,3.42-9.58,7.97-9.58,2.05,0,4.16,1,6,3.7l-.33.69c-1.91-2.1-3.54-2.99-5.48-2.99-3.37,0-6.14,2.54-6.14,8.15,0,5.15,2.56,7.73,5.89,7.73Zm10.79-.07v.98l-5.39.29-.09-3.63v-11.15l.05-.31v-11.06l-3.34-.15v-.98l4.72-.96.53.3-.11,5.24v22.4l-.56-1.36,4.18.38Z"/>
      <path class="cls-1" d="m512.98,680.82c0,.88-.09,1.59-.24,2.12l-13.85-.02v-1.11l10.86.02c1.04,0,1.35-.57,1.35-1.65,0-2.72-1.89-5.25-5.03-5.25-3.36,0-6.13,3.12-6.13,7.79,0,5.68,3.07,8.21,6.71,8.21,2.4,0,4.19-.93,5.63-2.51l.6.52c-1.44,2.2-3.82,3.53-6.66,3.53-4.49,0-8.29-3.09-8.29-9.3,0-5.72,3.86-9.37,8.22-9.37s6.83,2.98,6.83,7.01Z"/>
      <path class="cls-1" d="m519.56,684.11v-1.81c0-2.4-.04-4.34-.11-6.08l-3.29-.14v-.98l4.57-1.18.45.29.23,4.87v5.04c0,2.33.04,6.19.11,7.88h-2.07c.08-1.69.11-5.55.11-7.88Zm-3.19,6.9l3.91-.44h.51l4.06.44v.98h-8.47v-.98Zm4.09-11.96h1.38l-.65.37c1.11-3.33,3.6-5.61,6.15-5.61,1.2,0,2.24.5,2.55,1.12,0,1.16-.5,1.74-1.55,1.74-.75,0-1.31-.36-2.03-.97l-.86-.73,1.84-.04c-2.68.49-4.54,2.39-5.94,5.97h-.89v-1.85Z"/>
      <path class="cls-1" d="m539.59,690.94l3.46-.36h.62l3.84.36v1.06h-7.92v-1.06Zm11.11-24.47h1.36l8.61,25.53h-2.13l-7.88-23.76.73-.22-7.81,23.99h-1.36l8.48-25.53Zm-4.57,15.54h10.31l.42,1.15h-11.18l.44-1.15Zm7.93,8.93l4.59-.36h.62l4.43.36v1.06h-9.64v-1.06Z"/>
      <path class="cls-1" d="m588.55,685.97c0-2.64-1.33-4.02-5.51-5.69l-1.4-.56c-3.94-1.57-6.08-3.72-6.08-7.1,0-4.32,3.55-6.43,7.67-6.43,2.65,0,4.37.7,6.07,1.88l-.16,4.66h-1.41l-.65-5.09,1.31.71v1.03c-1.71-1.4-3.16-1.93-5.24-1.93-3.33,0-5.76,1.57-5.76,4.79,0,2.7,1.74,4.22,4.61,5.36l1.48.59c5.33,2.11,6.89,4.09,6.89,7.51,0,4.27-3.56,6.84-8.43,6.84-2.9,0-5.58-.97-7.15-2.01l.2-4.94h1.34l.69,5.27-1.42-.67v-1.09c2.21,1.64,3.74,2.19,6.29,2.19,3.9,0,6.64-1.76,6.64-5.29Z"/>
      <path class="cls-1" d="m596.67,682.4c0-2.4-.04-4.43-.11-6.17l-3.29-.14v-.98l4.57-1.18.45.29.17,3.08.06.14v11.73l-.05.27v3.77c0,2.45.04,5.84.11,7.91h-2.03c.07-2.07.11-5.43.11-7.88v-10.84Zm5.54,17.73v.98h-8.87v-.98l3.95-.44h.51l4.42.44Zm1.76-24.92c-1.88,0-3.82.83-6.11,3.41l-.32-.59c2.02-3.04,4.57-4.22,6.9-4.22,4.24,0,7.22,3.66,7.22,9.15,0,5.82-3.08,9.52-7.56,9.52-2.2,0-4.59-.81-6.56-3.95l.36-.53c2.04,2.3,3.77,3.09,5.9,3.09,3.14,0,5.85-2.37,5.85-7.99,0-5.15-2.39-7.89-5.68-7.89Z"/>
      <path class="cls-1" d="m630.4,680.82c0,.88-.09,1.59-.24,2.12l-13.85-.02v-1.11l10.86.02c1.04,0,1.35-.57,1.35-1.65,0-2.72-1.89-5.25-5.03-5.25-3.36,0-6.13,3.12-6.13,7.79,0,5.68,3.07,8.21,6.71,8.21,2.4,0,4.19-.93,5.63-2.51l.6.52c-1.44,2.2-3.82,3.53-6.66,3.53-4.49,0-8.29-3.09-8.29-9.3,0-5.72,3.86-9.37,8.22-9.37s6.83,2.98,6.83,7.01Z"/>
      <path class="cls-1" d="m641.85,691.02v.98h-8.83v-.98l4.17-.44h.51l4.15.44Zm-3.87-26.96l.53.3-.11,5.33v14.44c0,2.45.04,5.81.11,7.88h-2.07c.08-2.07.11-5.43.11-7.88v-17.98l-3.29-.15v-.98l4.72-.96Z"/>
      <path class="cls-1" d="m653.11,691.02v.98h-8.83v-.98l4.17-.44h.51l4.15.44Zm-3.87-26.96l.53.3-.11,5.33v14.44c0,2.45.04,5.81.11,7.88h-2.07c.08-2.07.11-5.43.11-7.88v-17.98l-3.29-.15v-.98l4.72-.96Z"/>
    </g>
  </g>
</svg>