<?xml version="1.0" encoding="UTF-8"?>
<svg id="Layer_1" data-name="Layer 1" xmlns="http://www.w3.org/2000/svg" viewBox="0 0 1080 1080">
  <defs>
    <style>
      .cls-1 {
        fill: #fff;
      }
    </style>
  </defs>
  <rect x="-13.6" y="-55.24" width="1107.71" height="1159.85"/>
  <g>
    <path class="cls-1" d="m420.52,516.03c-2.58-5.77-6.27-10.6-11.1-14.48-4.82-3.88-10.73-7.05-17.72-9.53-6.99-2.48-14.91-4.7-23.75-6.68-7.24-1.81-13.67-3.83-19.29-6.07-5.63-2.23-10.01-5.11-13.14-8.66-3.14-3.54-4.7-8.12-4.7-13.74,0-4.95,1.36-9.2,4.1-12.75,2.73-3.54,6.67-6.35,11.81-8.41,5.14-2.06,11.33-3.1,18.56-3.1,4.5,0,9.2.74,14.11,2.23,4.9,1.48,9.53,3.34,13.87,5.57,4.34,2.23,7.79,4.75,10.37,7.55,1.6,1.33,3.53,1.98,5.78,1.98,3.06,0,5.75-1.24,8.08-3.71,2.33-2.48,3.5-5.28,3.5-8.41,0-3.96-1.93-7.68-5.79-11.14-5.46-5.44-12.62-9.78-21.46-13-8.85-3.21-18.33-4.82-28.46-4.82-11.09,0-21.06,1.97-29.9,5.94-8.84,3.96-15.84,9.62-20.98,16.95-5.15,7.34-7.72,16.05-7.72,26.11,0,7.26,1.2,13.7,3.62,19.31,2.41,5.61,5.82,10.44,10.25,14.48,4.42,4.05,9.85,7.39,16.28,10.03,6.43,2.64,13.66,4.79,21.7,6.43,8.68,1.65,16.12,3.8,22.3,6.44,6.19,2.64,10.89,5.86,14.11,9.65,3.21,3.8,4.9,8.66,5.07,14.61,0,4.79-1.61,8.99-4.82,12.62-3.22,3.63-7.52,6.52-12.9,8.66-5.39,2.15-11.29,3.22-17.73,3.22-9,0-16.84-1.49-23.51-4.46-6.68-2.97-13.07-7.34-19.17-13.12-2.25-1.81-4.66-2.72-7.23-2.72-3.37,0-6.19,1.24-8.44,3.71-2.25,2.48-3.37,5.28-3.37,8.41,0,1.98.44,3.92,1.33,5.82.88,1.9,2.2,3.59,3.98,5.08,8.2,7.59,16.8,12.99,25.8,16.21,9,3.22,19.29,4.83,30.87,4.83,10.93,0,20.86-2.07,29.78-6.19,8.92-4.13,16.12-9.9,21.58-17.33,5.46-7.43,8.2-16.09,8.2-25.99,0-8.58-1.28-15.76-3.85-21.54Z"/>
    <path class="cls-1" d="m701.92,454.4c3.38,0,6.23,1.2,8.56,3.59,2.33,2.39,3.5,5.41,3.5,9.03v65.1c0,17.16-4.66,30.57-13.99,40.22-9.33,9.65-22.51,14.48-39.55,14.48s-30.18-4.83-39.43-14.48c-9.25-9.65-13.87-23.06-13.87-40.22v-65.1c0-3.63,1.16-6.64,3.5-9.03,2.33-2.39,5.26-3.59,8.8-3.59s6.23,1.2,8.56,3.59c2.33,2.39,3.5,5.41,3.5,9.03v65.1c0,10.73,2.45,18.73,7.35,24.01,4.9,5.28,12.09,7.92,21.58,7.92s16.92-2.64,21.82-7.92c4.9-5.28,7.35-13.28,7.35-24.01v-65.1c0-3.63,1.16-6.64,3.5-9.03,2.33-2.39,5.26-3.59,8.8-3.59Z"/>
    <path class="cls-1" d="m777.16,575.01c0,3.54-1.17,6.47-3.5,8.8-2.33,2.33-5.18,3.5-8.56,3.5s-6.23-1.16-8.56-3.5c-2.33-2.33-3.5-5.26-3.5-8.8v-153.83c0-3.53,1.21-6.47,3.62-8.8,2.41-2.33,5.3-3.5,8.68-3.5s6.39,1.17,8.56,3.5c2.17,2.33,3.26,5.27,3.26,8.8v153.83Z"/>
    <path class="cls-1" d="m580.56,516.51c-.29-7.63-1.77-15.08-4.4-22.14-.02-.05-.03-.09-.05-.14-2.45-6.54-5.84-12.61-10.06-18.04l-3.86-4.95-.84,6.22c-.8,5.86-2.68,11.42-5.61,16.52-1.72,3.02-3.8,5.83-6.17,8.38-4.04,4.35-8.79,7.78-14.09,10.19-3.66,1.66-7.5,2.79-11.42,3.37-4.15.6-8.43.6-12.57,0-3.92-.57-7.76-1.71-11.42-3.37-5.3-2.41-10.04-5.84-14.09-10.19-2.03-2.17-3.83-4.55-5.4-7.07,1.56-2.52,3.37-4.89,5.4-7.07.76-.81,1.56-1.62,2.39-2.38,1.42-1.31,2.71-2.35,4.06-3.23l1.2-.8v-1.44c-.03-2,.13-4,.49-5.92.99-5.31,3-10.39,5.8-14.73l4.36-6.76-7.51,2.85c-4.94,1.87-9.66,4.42-14.04,7.57-4.96,3.57-9.41,7.88-13.24,12.8-4.26,5.47-7.66,11.59-10.12,18.19l-.03.07-.32.85.34.93c2.46,6.59,5.86,12.71,10.12,18.19,2.29,2.94,4.78,5.65,7.45,8.09.01.01.03.03.05.05,9.51,8.72,21.2,14.19,33.8,15.68,4.58.55,9.38.55,13.95,0,10.48-1.24,20.31-5.21,28.78-11.51.03-.02.05-.04.09-.07,2.89-2.16,5.61-4.58,8.16-7.26,0,5.23-.88,10.35-2.6,15.23-1.33,3.77-3.13,7.3-5.38,10.55-1.26,1.85-2.68,3.62-4.23,5.28-4.04,4.35-8.79,7.78-14.09,10.19-3.66,1.66-7.5,2.79-11.42,3.37-4.14.61-8.43.61-12.57,0-3.92-.57-7.76-1.7-11.42-3.37-5.3-2.41-10.04-5.84-14.09-10.19-1.52-1.62-2.89-3.34-4.14-5.15-7.05-3.93-13.57-9.06-19.32-15.28-2.77-3-5.31-6.19-7.59-9.54.51,33.9,24.36,62.1,55.87,65.83,2.29.27,4.63.41,6.97.41s4.68-.14,6.97-.41c31.58-3.73,55.46-32.05,55.87-66.05.01-.3.01-.6.01-.91,0-.95-.02-1.89-.06-2.83Z"/>
    <path class="cls-1" d="m499.58,474.26c-.25,1.23-.35,2.51-.33,3.81-.04.51-.05,1.03-.05,1.55,0,12.21,8.34,22.11,18.63,22.11.11,0,.23,0,.35,0,7.19-.15,13.39-5.14,16.37-12.34,0-.01.01-.03.02-.04.91-2.41,1.48-5.01,1.67-7.68.04-.64.08-1.3.08-1.95.01-1.8-.18-3.61-.63-5.33-.03-.09-.05-.18-.08-.27-.71-2.49-2.15-4.69-2.96-7.15-.15-.44-.28-.88-.4-1.33-.61-2.19-.98-4.47-.96-6.75,0,.12-.83.65-.95.76-.3.27-.59.56-.88.84-.33.33-.64.68-.92,1.05-.18.23-.35.45-.52.68-.92,1.26-1.71,2.62-2.27,4.08-.34.88-.59,1.78-.8,2.7-.2.81-.27,1.71-.6,2.46-1.69-3.83-.65-8.43.71-12.19,0,0,0-.02,0-.03,3.13-8.69,2.31-14.46,2.03-15.84-.06-.3-.11-.61-.15-.91-.42-2.86-1.47-5.6-3.15-7.95-1.28-1.79-2.89-3.32-4.71-4.55-.8-.54-1.9-1.34-2.86-1.52.9,2.06,1.55,3.87,1.57,6.15.03,3.55-.59,7.42-1.91,10.72-1.38,3.42-3.34,6.6-5.44,9.61-1.67,2.41-3.36,4.56-4.71,6.19-2.5,3.03-4.42,6.64-5.57,10.6-.24.81-.44,1.65-.61,2.5Z"/>
    <g>
      <path class="cls-1" d="m476.89,621.92c.6.4.95.91,1.05,1.53.1.62-.07,1.23-.52,1.83-.35.5-.79.76-1.31.79-.52.03-1.06-.09-1.61-.34-1.85-1.25-3.87-2.22-6.06-2.92-2.2-.7-4.51-1.05-6.96-1.05-3.04,0-5.87.55-8.49,1.65-2.62,1.1-4.9,2.64-6.84,4.64-1.94,2-3.45,4.36-4.53,7.11-1.07,2.74-1.61,5.76-1.61,9.05s.55,6.47,1.65,9.24c1.1,2.77,2.63,5.15,4.6,7.14,1.97,2,4.25,3.52,6.84,4.56,2.59,1.05,5.39,1.57,8.38,1.57,2.44,0,4.75-.35,6.92-1.05,2.17-.7,4.2-1.65,6.1-2.84.5-.3,1.02-.41,1.57-.34.55.08,1.02.36,1.42.86.4.55.55,1.15.45,1.8-.1.65-.42,1.12-.97,1.42-1.25.8-2.72,1.56-4.41,2.28-1.7.72-3.49,1.28-5.39,1.68-1.9.4-3.79.6-5.68.6-3.59,0-6.97-.65-10.14-1.94-3.17-1.3-5.96-3.13-8.38-5.5-2.42-2.37-4.33-5.2-5.72-8.49-1.4-3.29-2.09-6.96-2.09-11s.68-7.45,2.06-10.7c1.37-3.24,3.25-6.07,5.65-8.49,2.39-2.42,5.19-4.3,8.38-5.65,3.19-1.35,6.61-2.02,10.25-2.02,2.84,0,5.58.4,8.23,1.2,2.64.8,5.04,1.92,7.18,3.37Z"/>
      <path class="cls-1" d="m518.85,632.17c.65,0,1.18.22,1.61.67.42.45.64,1,.64,1.65v33.66c0,.6-.22,1.12-.67,1.57-.45.45-.97.67-1.57.67-.7,0-1.25-.22-1.65-.67-.4-.45-.6-.97-.6-1.57v-8.9l1.27-.52c0,1.35-.39,2.76-1.16,4.23-.77,1.47-1.83,2.82-3.18,4.04-1.35,1.22-2.93,2.22-4.75,2.99-1.82.77-3.78,1.16-5.87,1.16-3.39,0-6.42-.87-9.09-2.62-2.67-1.75-4.76-4.14-6.28-7.18-1.52-3.04-2.28-6.46-2.28-10.25s.77-7.32,2.32-10.29c1.55-2.97,3.64-5.3,6.28-6.99,2.64-1.69,5.61-2.54,8.9-2.54,2.14,0,4.15.37,6.02,1.12,1.87.75,3.5,1.77,4.9,3.07,1.4,1.3,2.49,2.78,3.29,4.45.8,1.67,1.2,3.4,1.2,5.2l-1.57-1.12v-9.5c0-.65.2-1.2.6-1.65.4-.45.95-.67,1.65-.67Zm-15.56,34.78c2.64,0,4.99-.68,7.03-2.06,2.04-1.37,3.65-3.27,4.82-5.69,1.17-2.42,1.76-5.12,1.76-8.12s-.59-5.52-1.76-7.89c-1.17-2.37-2.78-4.24-4.82-5.61-2.05-1.37-4.39-2.06-7.03-2.06s-4.93.66-6.99,1.98c-2.07,1.32-3.69,3.15-4.86,5.5-1.17,2.34-1.76,5.04-1.76,8.08s.59,5.7,1.76,8.12c1.17,2.42,2.78,4.31,4.82,5.69,2.04,1.37,4.39,2.06,7.03,2.06Z"/>
      <path class="cls-1" d="m551.99,631.27c3.29,0,5.92.66,7.89,1.98,1.97,1.32,3.39,3.12,4.26,5.39.87,2.27,1.31,4.78,1.31,7.52v21.99c0,.6-.22,1.12-.67,1.57-.45.45-.97.67-1.57.67-.7,0-1.26-.22-1.68-.67-.42-.45-.64-.97-.64-1.57v-21.77c0-1.99-.32-3.82-.97-5.46-.65-1.65-1.7-2.95-3.14-3.93-1.45-.97-3.37-1.46-5.76-1.46-2.14,0-4.18.49-6.1,1.46-1.92.97-3.48,2.28-4.68,3.93-1.2,1.65-1.8,3.47-1.8,5.46v21.77c0,.6-.22,1.12-.67,1.57-.45.45-.97.67-1.57.67-.7,0-1.26-.22-1.68-.67-.42-.45-.64-.97-.64-1.57v-33.51c0-.6.22-1.12.67-1.57.45-.45,1-.67,1.65-.67s1.18.22,1.61.67c.42.45.64.97.64,1.57v6.28l-1.72,2.69c.1-1.6.61-3.13,1.53-4.6.92-1.47,2.11-2.79,3.55-3.96,1.45-1.17,3.05-2.09,4.82-2.77,1.77-.67,3.55-1.01,5.35-1.01Z"/>
      <path class="cls-1" d="m609.66,615.04c.65,0,1.18.22,1.61.67.42.45.64.97.64,1.57v50.87c0,.6-.22,1.12-.67,1.57-.45.45-.97.67-1.57.67-.7,0-1.25-.22-1.65-.67-.4-.45-.6-.97-.6-1.57v-8.9l1.27-1.05c0,1.45-.37,2.93-1.12,4.45-.75,1.52-1.81,2.92-3.18,4.19-1.37,1.27-2.97,2.31-4.79,3.1-1.82.8-3.78,1.2-5.87,1.2-3.34,0-6.35-.87-9.01-2.62-2.67-1.75-4.78-4.11-6.32-7.11-1.55-2.99-2.32-6.41-2.32-10.25s.77-7.19,2.32-10.21c1.55-3.02,3.64-5.39,6.28-7.11,2.64-1.72,5.61-2.58,8.9-2.58,2.09,0,4.06.37,5.91,1.12,1.84.75,3.48,1.77,4.9,3.07,1.42,1.3,2.54,2.78,3.37,4.45.82,1.67,1.23,3.4,1.23,5.2l-1.57-1.12v-26.7c0-.6.2-1.12.6-1.57.4-.45.95-.67,1.65-.67Zm-15.56,51.91c2.69,0,5.05-.68,7.07-2.06,2.02-1.37,3.61-3.24,4.79-5.61,1.17-2.37,1.76-5.07,1.76-8.12s-.59-5.67-1.76-8.04c-1.17-2.37-2.78-4.23-4.82-5.57-2.05-1.35-4.39-2.02-7.03-2.02s-4.93.67-6.99,2.02c-2.07,1.35-3.69,3.2-4.86,5.57-1.17,2.37-1.76,5.05-1.76,8.04s.59,5.68,1.76,8.08c1.17,2.39,2.79,4.28,4.86,5.65,2.07,1.37,4.4,2.06,6.99,2.06Z"/>
      <path class="cls-1" d="m629.71,668.15c0,.6-.22,1.12-.67,1.57-.45.45-.97.67-1.57.67-.65,0-1.19-.22-1.61-.67-.42-.45-.64-.97-.64-1.57v-50.87c0-.6.22-1.12.67-1.57.45-.45.97-.67,1.57-.67.65,0,1.18.22,1.61.67.42.45.64.97.64,1.57v50.87Z"/>
      <path class="cls-1" d="m660.38,671.14c-3.84,0-7.23-.82-10.17-2.47-2.94-1.65-5.24-3.94-6.88-6.88-1.65-2.94-2.47-6.38-2.47-10.32,0-4.24.83-7.85,2.51-10.85,1.67-2.99,3.84-5.3,6.51-6.92,2.67-1.62,5.5-2.43,8.49-2.43,2.19,0,4.33.39,6.4,1.16,2.07.77,3.91,1.92,5.54,3.44,1.62,1.52,2.92,3.38,3.89,5.57.97,2.19,1.51,4.74,1.61,7.63-.05.6-.3,1.11-.75,1.53-.45.42-.97.64-1.57.64h-30l-.9-4.04h29.47l-.97.9v-1.5c-.25-2.34-1.02-4.33-2.32-5.95-1.3-1.62-2.86-2.87-4.68-3.74-1.82-.87-3.73-1.31-5.72-1.31-1.5,0-3.03.3-4.6.9-1.57.6-2.99,1.53-4.26,2.81-1.27,1.27-2.31,2.89-3.1,4.86-.8,1.97-1.2,4.3-1.2,6.99,0,2.94.6,5.61,1.8,8,1.2,2.39,2.93,4.29,5.2,5.68,2.27,1.4,4.97,2.09,8.12,2.09,1.75,0,3.3-.25,4.68-.75,1.37-.5,2.59-1.16,3.67-1.98,1.07-.82,1.96-1.68,2.66-2.58.55-.45,1.07-.67,1.57-.67.55,0,1.01.2,1.38.6.37.4.56.85.56,1.35,0,.6-.25,1.12-.75,1.57-1.5,1.8-3.44,3.35-5.83,4.68-2.39,1.32-5.01,1.98-7.85,1.98Z"/>
    </g>
  </g>
</svg>