<?xml version="1.0" encoding="UTF-8"?>
<svg id="Layer_1" data-name="Layer 1" xmlns="http://www.w3.org/2000/svg" viewBox="0 0 1080 1080">
  <defs>
    <style>
      .cls-1 {
        fill: #fff;
      }
    </style>
  </defs>
  <rect x="-13.6" y="-38.09" width="1107.71" height="1159.85"/>
  <g>
    <g>
      <g>
        <g>
          <path class="cls-1" d="m562.46,427.68l.03.05s.02-.02.03-.02c.03-.01.08-.02.11-.02h-.17Z"/>
          <path class="cls-1" d="m574.62,449.21l-15.78-29.87c-.08-.15-.25-.22-.39-.17l-18.23,7.3s-.02,0-.03.01h-.03s-.03,0-.03,0l-.03.02s-.02.01-.03.01c-.02.01-.02.02-.03.04-.02.01-.03.04-.05.06-.02.02-.02.04-.03.05l-.02.05h0s-11.7,23.48-11.7,23.48c-.07.12-.07.29-.01.41,0,.01.01.04.03.04.01.01.03.03.03.04l14.91,32.17.53,1.13,3.87,8.36.17.34v.05s.05.08.05.08l1.39,2.53h0s.1.19.1.19l.15.25s.09.02.14.02c.14.01.27.03.41.04l.34.03-.13-.38-.15-.44-.5-1.42-.16-.51-.33-.94-.13-.39-2.48-7.17-.37-1.07-11.42-33.14,1.08-4.27,7.7-5.04.02.09c.02.13.11.22.2.27l24.95,11.06-12.78,32.75-.36.91-2.07,5.29-.15.4-.72,1.87-.21.51-.19.51-.17.42-.32.84c.06.02.12.02.18.03l.77.06.07-.16.04-.11.16-.33.78-1.63.22-.47.6-1.27.18-.38,1.42-3.01.07-.12,1.04-2.21.44-.92,17-35.84c.07-.13.07-.3,0-.43Zm-16.19-29.16l4.03,7.63h.17s-.08.02-.11.03c-.02,0-.02.01-.03.02l-.03-.05-20.4-1.11,16.37-6.52Zm-13.14,63.33l.37,1.08,2.62,7.58.12.4.05.16-.07-.15-.17-.38-3.66-7.87-.52-1.12-15.08-32.5,5.95-3.88-.91,3.62c-.02.09-.03.19.01.28l11.29,32.78Zm-10.1-37.79l-5.76,3.75,9.69-19.43-3.94,15.68Zm.84-.56l4.22-16.76,3,12.03-7.21,4.72Zm4.66-17.72l20.71,1.13-17.55,11.47-3.16-12.61Zm3.37,13.46v-.05s18.37-12.04,18.37-12.04l6.2,22.98-24.57-10.89Zm12.84,44.64l-.44.91-1.55,3.27,1.29-3.3.36-.91,12.71-32.59,4.24-2.42-16.61,35.05Zm12.47-33.59l-6.1-22.63,10.59,20.06-4.48,2.56Z"/>
        </g>
        <path class="cls-1" d="m562.46,427.68l.03.05s.02-.02.03-.02c.03-.01.08-.02.11-.02h-.17Z"/>
      </g>
      <g>
        <g>
          <path class="cls-1" d="m548.8,495.74l.04.08s.03-.05.05-.07h-.09Zm-49.61-31.26v.04s0-.03.02-.04h-.02Zm11.22-10.15l.05.02v-.04s-.05.02-.05.02Zm18.93,37.16c-.06-.03-.14-.05-.21-.07l.22.09v-.03Z"/>
          <path class="cls-1" d="m534.82,493.13c-.14-.05-.29-.09-.42-.12-.82-.2-1.62-.44-2.41-.68-.21-.07-.44-.12-.66-.2-.44-.13-.87-.26-1.29-.42-.24-.07-.48-.14-.69-.22-.06-.03-.14-.05-.21-.07-.06-.03-.12-.05-.19-.08l-7.85-3.02c-1.85-.81-3.65-1.68-5.42-2.6l19.15,7.4Z"/>
        </g>
        <path class="cls-1" d="m499.21,464.49s-.02.02-.02.04v-.04s.02,0,.02,0Z"/>
        <g>
          <path class="cls-1" d="m548.8,495.74l.04.08s.03-.05.05-.07h-.09Zm-38.39-41.4l.05.02v-.04s-.05.02-.05.02Zm-9.47,12.56l7.67,14.75h.02s-7.68-14.75-7.68-14.75Zm47.86,28.85l.04.08s.03-.05.05-.07h-.09Z"/>
          <path class="cls-1" d="m549.28,495.55l-.1-.17h0s-1.39-2.55-1.39-2.55l-.04-.08-.34-.61-.04-.09-.22-.4-.03-.05-5.71-10.51-.76-1.41-10.27-18.96c-.05-.11-.17-.18-.29-.23l-2.37-.8-1.91-.64-22.51-7.63c-.14-.05-.26-.02-.28.08l-1.33,4.45-.37,1.27-2.13,7.26h.02s-.02.03-.02.04v.04s0,.06.02.09c0,0,.01.01.01.04l.03.03v.03s8.5,16.34,8.5,16.34c.28.2.57.37.85.56l-7.67-14.75,8.35,10.7-.21,4.36c.06.03.1.07.16.1.16.1.31.19.46.29l.2-3.99,1.91,2.47c.04.07.12.11.19.15l27.38,13.25c.58.12,1.17.24,1.75.34l-.76-.36-.46-.23-27.71-13.42-2.27-2.92.31-6.55h0s.07.03.07.03c.09.06.19.08.27.06l18.87-5.93,8.43,13.53.94,1.51,7.04,11.28.27.47.14.23.28.42,1.87,3.03h.06c.11.01.2.03.31.04h.09c.06.02.12.03.18.03h.09c.08.01.17.03.26.03l-.15-.25Zm-47.39-37.78l.35-1.26,1.32-4.49,6.85,2.32.05-.02v.04s-.05-.02-.05-.02l-5.39,4.86-.84.75-4.01,3.63,1.72-5.81Zm2.81,2.67l.84-.76,4.87-4.39-.42,8.19-.07,1.41-.25,5.35-9.67-5.54,4.7-4.25Zm-4.28,5.02l9.22,5.26-.31,6.16-8.91-11.42Zm9.9,5.14h-.03s.26-5.24.26-5.24l.07-1.38.45-9.05,17.84,9.85-18.58,5.82Zm19.04-6.11h0s-11.25-6.21-11.25-6.21l-1.38-.75-4.85-2.7,5.67,1.92h.02s.81.28.81.28c.02,0,.01.01.01.01l6.73,2.26,2.95,1,1.73.59-.43,3.59Zm17.41,27.56l-.08-.12-.22-.35-6.92-11.08-.92-1.49-8.68-13.93.4-3.38,9.63,17.76.77,1.41,5.81,10.69.24.48s0,.01.01.01l.13.28-.18-.28Z"/>
        </g>
      </g>
      <path class="cls-1" d="m597.21,471.27s-.04-.04-.1-.05l-22.86,1.58h-.03s-.06.02-.08.03c0,0-.03.01-.05,0l-12.81,6.72-.54.29-.02.02s-.02.01-.05.03t-.02.04s-.02.01-.02.01l-.47.88-4.02,7.79-.07.12-1.42,3.01-.18.38-.6,1.27-.22.47-.78,1.63-.16.33-.04.11.61-1.16.3-.58,1.51-2.89.32-.61.74-1.43.27-.51,4.09-7.9.4-.77,1.74-.4,6.79-1.62-1.75,1.97-1.19,1.32-7.79,8.74-.4.43-.13.16-.45.51-3.56,3.98-.4.45-.47.52c.12.02.25.02.37.03l.22-.25.44-.49,3.74-4.2.45-.5.02-.02.39-.44,7.94-8.89,1.19-1.35,1.88-2.07,26.77-6.36-6.33,7.12-1.48,1.64-2.48,2.79s0,.03-.02.04c-.03,0-.05,0-.06.02l-22.55,9.95-.6.26-1.43.63-.53.24-4.55,2.01c.2.02.41.02.61.02h.02s4.04-1.78,4.04-1.78l.53-.24,1.54-.67.57-.27,22.23-9.81-4.37,8.6h-.02s-16.06,3.48-16.06,3.48l-.59.12-2.55.56c.52-.01,1.05-.02,1.58-.06l1.13-.23.59-.13,14.79-3.21-5.44,2.4,1.12-.18,5.56-2.47.05-.02h.02c.06-.04.11-.1.12-.16h.02s8.86-12.22,8.86-12.22l1.17-1.62,5.05-6.97s.07-.08.04-.15h-.03Zm-27.45,6.44h0s-7.99,1.89-7.99,1.89l11.82-6.18-3.83,4.29Zm.5-.11l3.99-4.5,21.21-1.49-25.2,5.98Zm21.49.9l-1.18,1.59-7.64,10.56,3.74-7.36,2.65-2.98,1.46-1.66,4.51-5.04-3.55,4.9Z"/>
      <path class="cls-1" d="m596.77,488.4s.06-.04.08-.07c7.12-5,13.46-10.9,18.81-17.53,1.37-1.66,2.64-3.37,3.86-5.12-1.02,1.03-2.05,2.05-3.12,3.04-2.26,2.12-4.68,4.12-7.2,6-14.23,10.63-32.3,17.45-52.14,18.44-39.56,1.98-73.97-19.75-85.71-51.15l-.34-.96c-.06-.17-.13-.36-.19-.54-.05-.09-.08-.19-.11-.27-.07-.21-.15-.44-.21-.66-.05-.09-.08-.2-.1-.31-.84-2.55-1.51-5.15-2.04-7.81-.1-.46-.18-.92-.26-1.38-.29-1.54-.5-3.09-.66-4.68h0c-.02-.19-.04-.38-.05-.56-.04-.37-.07-.72-.1-1.08-.02-.08-.02-.16-.02-.24-.05-.43-.08-.87-.1-1.32,0-.11-.02-.22-.01-.33-.02-.2-.03-.41-.04-.61l-.03-.68c0-.05,0-.11,0-.16-.02-.16-.01-.31-.02-.48,0-.22-.02-.41,0-.61l-.02-.39c0-.12,0-.25,0-.37,0-.04,0-.08,0-.12-.02-.08,0-.16,0-.23v-.08c0-.05,0-.11,0-.16-.03-.01-.06-.02-.09-.04l.08-.05c0-.1,0-.18,0-.27v-.05c-.01-.2,0-.38,0-.59,0-.1,0-.19,0-.29,0-.22.01-.42.02-.63.06-1.71.18-3.39.37-5.06.04-.52.1-1.05.17-1.57.09-.66.19-1.3.29-1.95.03-.25.07-.47.11-.7.06-.37.13-.73.2-1.11.02-.12.05-.25.07-.37.04-.12.06-.26.08-.39.13-.74.3-1.47.47-2.2.05-.19.08-.4.15-.61.1-.4.18-.8.31-1.19.05-.22.1-.44.16-.63l-.03.02.08-.21c.03-.06.04-.11.06-.18.67-2.47,1.49-4.9,2.44-7.26.69-1.72,1.44-3.41,2.26-5.07.91-1.86,1.9-3.69,2.97-5.47l-.09-.16.2-.02c.09-.14.17-.28.27-.44.03-.06.07-.1.09-.15.09-.14.17-.29.28-.44h0c.18-.28.34-.56.53-.83.96-1.51,1.99-2.97,3.06-4.42.14-.18.29-.38.45-.58,1.07-1.43,2.21-2.82,3.38-4.19.15-.16.29-.33.44-.49.79-.9,1.6-1.78,2.44-2.63.15-.18.33-.36.51-.52,15.22-15.5,37.22-25.81,62-27.05,18.37-.92,35.63,3.27,50.01,11.17,1.36.75,2.7,1.53,3.99,2.33-1.78-1.52-3.65-2.96-5.55-4.35-16.74-12.1-38.03-18.86-60.92-17.71-46.37,2.32-83.6,36.24-88.82,78.23-.02.15-.05.29-.05.44-.15,1.25-.28,2.51-.36,3.79,0,.15-.03.3-.03.44-.02.14-.03.29-.03.44-.03.38-.06.75-.07,1.13,0,.04-.01.08,0,.12-.01.41-.05.85-.06,1.27,0,.2-.01.42,0,.63,0,.15-.02.29-.01.42-.01.4-.01.78-.01,1.16-.01.06-.01.1,0,.15-.01.07,0,.14,0,.22-.01.03-.01.07,0,.11-.01.01-.01.04-.01.07v.14c0,.2,0,.42,0,.65v.2s0,.01,0,.03h0s.01.3.01.3c0,.2,0,.41.01.63,0,.14,0,.26.02.39,0,.2,0,.42.01.64l.02.41c0,.14.01.27.03.39.06,1.48.16,2.95.31,4.4.02.15.04.28.05.42.09.91.22,1.81.35,2.71,0,.15.03.28.06.43.02.24.06.47.12.73,0,.18.04.35.08.53,6.99,43.16,47.79,75.03,95.5,72.65,19.2-.96,36.84-7.35,51.29-17.5Zm-120.11-107.43l.05.09-.15.08c.04-.06.07-.11.11-.17Z"/>
      <path class="cls-1" d="m586.74,457.48h-.01v-.03.03Z"/>
      <path class="cls-1" d="m561.21,446.63h-.01s.01-.01.01-.01h0Z"/>
      <path class="cls-1" d="m568.13,469.52c-.02.27-.34.47-.7.44-.37-.03-.65-.27-.63-.54s.34-.47.71-.44c.36.03.65.27.63.54Z"/>
      <path class="cls-1" d="m571.76,454.16c-.31.02-.56-.24-.58-.56s.22-.61.53-.62.56.24.58.57c.01.32-.22.6-.53.62Z"/>
      <path class="cls-1" d="m547.14,395.59c-.31.02-.56-.24-.58-.56-.01-.33.22-.61.53-.62s.56.24.58.57-.22.6-.53.62Z"/>
      <path class="cls-1" d="m541.47,415.74c-.1.43-.58.7-1.09.6s-.85-.53-.75-.97.6-.71,1.11-.61.83.54.73.98Z"/>
      <path class="cls-1" d="m588.54,451.25c-.5.03-.93-.33-.95-.81-.02-.48.38-.88.88-.9s.92.34.94.81-.38.88-.87.9Z"/>
      <path class="cls-1" d="m519.45,448.26c-.03.44-.58.77-1.21.72-.63-.05-1.11-.45-1.07-.9s.56-.76,1.19-.71c.63.05,1.12.44,1.09.88Z"/>
      <polygon class="cls-1" points="495.24 457.61 496.12 458.95 495.06 457.89 494.4 459.69 494.59 457.82 493.37 458.32 494.55 457.46 492.07 456.73 494.36 456.98 493.7 455.98 494.72 457.01 494.73 457.01 495.5 454.91 495.29 457.1 496.47 456.62 495.62 457.23 497.84 457.88 495.24 457.61"/>
      <polygon class="cls-1" points="580.55 420.83 581.15 421.71 580.46 421.02 580.02 422.2 580.15 420.97 579.35 421.3 580.13 420.74 578.49 420.26 580 420.42 579.56 419.76 580.24 420.44 580.74 419.06 580.61 420.5 581.38 420.18 580.83 420.58 582.28 421.01 580.55 420.83"/>
      <polygon class="cls-1" points="530.27 459.33 530.59 459.7 530.24 459.42 530.12 459.97 530.09 459.42 529.76 459.61 530.07 459.32 529.3 459.19 529.99 459.18 529.75 458.91 530.1 459.18 530.23 458.53 530.27 459.18 530.59 459 530.37 459.21 531.05 459.32 530.27 459.33"/>
      <polygon class="cls-1" points="582.15 467.54 582.9 468.38 582.09 467.76 581.82 469.01 581.75 467.76 580.99 468.17 581.7 467.51 579.97 467.23 581.53 467.2 580.98 466.59 581.76 467.2 582.06 465.73 582.16 467.21 582.88 466.8 582.38 467.27 583.92 467.53 582.15 467.54"/>
      <g>
        <polygon class="cls-1" points="535.01 405.89 532.38 405.6 532.35 405.59 532.23 405.89 531.57 407.7 531.74 405.82 531.78 405.48 531.73 405.47 529.23 404.74 531.53 404.99 531.88 405.02 532.66 402.91 532.46 405.11 532.45 405.13 532.78 405.22 535.01 405.89"/>
        <polygon class="cls-1" points="533.29 406.96 532.23 405.89 532.04 405.7 531.74 405.82 530.53 406.32 531.73 405.47 531.81 405.41 531.53 404.99 530.86 403.99 531.88 405.02 532.11 405.25 532.46 405.11 533.62 404.62 532.78 405.22 532.34 405.54 532.38 405.6 533.29 406.96"/>
      </g>
      <path class="cls-1" d="m693.75,384.54l-.11.03c.06.04.12.07.18.12l-.07-.14Zm1.04-.48v.18s.19-.06.19-.06c-.06-.04-.12-.09-.19-.12Zm39.11,13.4l.04.08s.03-.05.05-.07h-.09Zm-19.46-4.24c-.06-.03-.14-.05-.21-.07l.22.09v-.03Zm-19.64-9.16v.18s.19-.06.19-.06c-.06-.04-.12-.09-.19-.12Zm39.11,13.4l.04.08s.03-.05.05-.07h-.09Z"/>
    </g>
    <g>
      <path class="cls-1" d="m94.33,652.46c3.5,2.67,9.07,4.01,16.72,4.01,4.2,0,8.99-.79,14.37-2.35,5.38-1.57,11.2-4.42,17.44-8.54,6.24-4.12,12.78-9.73,19.62-16.83,6.84-7.09,13.75-16.21,20.75-27.37,5.49-8.6,10.39-15.69,14.7-21.27,4.31-5.58,8.24-9.97,11.79-13.16,3.55-3.2,6.78-5.43,9.69-6.71,2.91-1.28,5.65-1.92,8.24-1.92-2.48.7-4.93,1.8-7.35,3.31-2.42,1.51-5.14,3.98-8.16,7.41-3.02,3.43-6.41,8.08-10.18,13.95-3.77,5.87-8.13,13.51-13.08,22.93-5.06,9.53-10.96,17.64-17.68,24.32-6.73,6.68-13.65,12.15-20.75,16.39-7.11,4.25-14.11,7.32-20.99,9.24-6.89,1.92-13.08,2.88-18.57,2.88-4.2,0-7.83-.47-10.9-1.39-3.07-.93-5.63-2.12-7.67-3.58-2.05-1.45-3.58-3.14-4.6-5.06-1.02-1.92-1.54-3.93-1.54-6.02,0-2.67.7-4.8,2.1-6.36,1.4-1.57,3.23-2.35,5.49-2.35,2.04,0,3.52.58,4.44,1.74.91,1.16,1.37,2.56,1.37,4.18,0,1.74-.54,3.2-1.62,4.36-1.08,1.16-2.69,1.74-4.84,1.74-1.4,0-2.45-.32-3.15-.96-.7-.64-1.27-1.25-1.7-1.83.54,3.49,2.56,6.57,6.06,9.24Zm43.69-56.23c2.8,3.2,7.11,4.79,12.92,4.79,5.27,0,10.18-1.07,14.7-3.23,4.52-2.15,8.45-4.82,11.79-8.02,3.34-3.19,5.95-6.63,7.83-10.29,1.88-3.66,2.83-7,2.83-10.03,0-2.67-.84-4.88-2.5-6.63-1.67-1.74-4.39-2.62-8.16-2.62-5.17,0-9.83.82-13.97,2.44-4.15,1.63-7.67,3.55-10.58,5.75-2.91,2.21-5.14,4.42-6.7,6.63-1.56,2.21-2.4,3.9-2.5,5.06.32-2.9,1.56-5.67,3.72-8.28,2.15-2.62,4.85-4.94,8.07-6.98,3.23-2.03,6.76-3.63,10.58-4.79,3.82-1.16,7.62-1.74,11.39-1.74,4.52,0,7.8,1.07,9.85,3.23,2.04,2.15,3.07,4.79,3.07,7.93,0,3.37-1,7.03-2.99,10.99-1.99,3.95-4.74,7.61-8.24,10.98-3.5,3.37-7.65,6.19-12.44,8.46-4.79,2.27-10.04,3.4-15.75,3.4-6.35,0-11.22-1.63-14.62-4.88-3.39-3.25-5.09-8.08-5.09-14.47,0-4.42,1.07-8.95,3.23-13.6,2.15-4.65,5.52-8.89,10.09-12.73,4.58-3.83,10.36-6.97,17.36-9.41,7-2.44,15.34-3.66,25.03-3.66,4.09,0,8,.15,11.71.43,3.72.29,7.67.67,11.87,1.13,3.23.35,6.54.7,9.93,1.05,3.39.35,6.73.67,10.01.96,3.28.29,6.4.53,9.37.7,2.96.17,5.68.26,8.16.26,5.92,0,10.52-.9,13.81-2.7,3.28-1.8,6.06-3.69,8.32-5.67-.97,1.74-2.24,3.49-3.79,5.23-1.56,1.74-3.45,3.31-5.65,4.71-2.21,1.39-4.74,2.53-7.59,3.4-2.85.87-6.06,1.31-9.61,1.31-7.11,0-13.27-.41-18.49-1.22-5.22-.81-10.15-1.68-14.78-2.61-4.52-.93-9.04-1.77-13.57-2.53-4.52-.75-9.53-1.13-15.02-1.13-7.65,0-14.43,1.13-20.35,3.4-5.92,2.27-10.9,5.18-14.94,8.72-4.04,3.55-7.14,7.5-9.29,11.86-2.15,4.36-3.23,8.63-3.23,12.81,0,4.53,1.4,8.4,4.2,11.6Z"/>
      <path class="cls-1" d="m369.77,633.46c-.42,0-.9.3-1.44.87-1.08,1.29-2.59,3.04-4.54,5.32-1.92,2.25-4,4.54-6.22,6.79-2.19,2.28-4.39,4.21-6.52,5.83-2.16,1.65-4,2.47-5.5,2.47s-2.25-.6-2.25-1.74c0-1.41.93-3.43,2.83-6.1,1.89-2.68,3.91-5.41,6.04-8.21,2.83-3.49,4.84-6.28,6.07-8.36,1.23-2.1,1.86-4.48,1.86-7.15,0-1.98-.48-3.67-1.47-5.05-.96-1.41-2.47-2.1-4.51-2.1-2.5,0-4.78.36-6.85,1.05-2.1.69-4,1.53-5.65,2.53-1.68.99-3.22,2.04-4.63,3.13-1.38,1.11-2.59,2.07-3.55,2.89l36.19-55.28h-6.31l-27.63,42.03c-.42.69-1.62,2.07-3.61,4.09-2.01,2.04-4.18,4.24-6.55,6.55-2.37,2.31-4.63,4.6-6.79,6.79-2.13,2.22-3.64,3.73-4.51,4.54-.63.87-.93,1.38-.93,1.53l-.03.03c-1.56,1.95-3.19,3.88-4.84,5.77-2.07,2.31-4.18,4.45-6.4,6.34-2.19,1.92-4.42,3.46-6.61,4.63-2.19,1.17-4.45,1.74-6.7,1.74-1.5,0-2.74-.45-3.7-1.32-.99-.87-1.47-2.28-1.47-4.27,0-2.43.81-5.38,2.43-8.87,1.62-3.49,3.58-6.82,5.89-10.04,2.31-3.19,4.72-5.89,7.28-8.12,2.53-2.19,4.75-3.31,6.7-3.31,1.17,0,2.04.36,2.59,1.05.51.69.78,1.38.78,2.1-.54-.36-1.17-.54-1.92-.54-1.08,0-1.83.36-2.25,1.05-.45.69-.66,1.44-.66,2.25,0,1.05.3,1.86.9,2.46.57.57,1.32.87,2.16.87,1.41,0,2.37-.54,2.92-1.59.54-1.02.81-2.19.81-3.49,0-2.07-.66-3.67-1.95-4.78-1.29-1.11-3.37-1.65-6.28-1.65s-5.59.81-8.39,2.43c-2.83,1.62-5.38,3.79-7.7,6.46-2.22,2.56-4.03,5.5-5.47,8.81-.09.09-.15.15-.24.24-1.08,1.29-2.56,3.04-4.45,5.23-1.89,2.22-3.91,4.42-6.04,6.64-2.16,2.19-4.3,4.09-6.4,5.65-2.1,1.56-3.91,2.34-5.41,2.34-.84,0-1.56-.18-2.1-.6-.54-.39-.78-1.08-.78-2.01,0-1.62.9-3.82,2.74-6.61l18.4-28.41h-7.43l-10.82,15.51c-1.5,2.31-3.4,4.84-5.65,7.58-2.25,2.74-4.45,5.02-6.61,6.88-2.16,1.98-4.42,3.82-6.79,5.5-2.34,1.68-4.57,2.53-6.61,2.53-2.92,0-4.36-1.26-4.36-3.85,0-2.19,1.17-5.11,3.55-8.72l17.14-25.43h-7.61l-.33.69c0,.12-.51.78-1.59,1.98-1.08,1.23-2.43,2.71-4.06,4.45-1.59,1.74-3.37,3.61-5.23,5.59-1.8,1.89-3.46,3.61-5.02,5.17-.09.09-.15.15-.24.24-1.29,1.38-2.86,2.34-4.69,2.86-1.83.54-3.16.81-4.03.81.66-1.29,1.38-3.22,2.19-5.77.78-2.56,1.2-5.23,1.2-8.03,0-2.31-.48-4.33-1.44-6.01-.99-1.68-2.77-2.53-5.35-2.53-2.89,0-5.5.54-7.82,1.56-2.31,1.05-4.42,2.37-6.31,3.94-1.89,1.56-3.58,3.34-5.08,5.32-1.5,1.98-2.8,3.82-3.88,5.56-.96,1.65-1.74,3.61-2.34,5.95-.6,2.31-.87,4.63-.87,6.97,0,3.01.57,5.68,1.77,8,1.17,2.34,3.16,3.49,5.95,3.49,2.59,0,5.02-.6,7.27-1.83,2.25-1.2,4.3-2.68,6.07-4.42,1.77-1.74,3.28-3.52,4.51-5.32,1.23-1.8,2.13-3.31,2.68-4.45,1.92,0,3.97-.36,6.13-1.05,1.89-.6,3.43-1.56,4.63-2.89.18-.09.36-.24.54-.42,1.5-1.62,3.16-3.43,4.93-5.41,1.77-1.98,3.25-3.61,4.42-4.87-.42.57-1.08,1.53-2.01,2.86-.9,1.35-1.86,2.83-2.89,4.45-1.05,1.62-2.01,3.25-2.92,4.9-.93,1.62-1.59,3.07-2.01,4.36-.87,2.77-1.29,5.17-1.29,7.12,0,2.22.51,3.97,1.53,5.23,1.02,1.29,2.65,1.92,4.93,1.92,3.1,0,5.74-.69,7.91-2.07,2.13-1.41,3.97-2.68,5.5-3.85.63-.45,1.35-1.08,2.16-1.83.81-.75,1.62-1.5,2.43-2.25.81-.75,1.56-1.53,2.25-2.28.69-.75,1.26-1.29,1.68-1.65-1.29,2.68-1.92,5.11-1.92,7.34,0,1.98.54,3.58,1.62,4.78,1.05,1.23,2.74,1.83,4.99,1.83,2.04,0,4.33-.9,6.85-2.71,2.56-1.8,4.96-3.85,7.27-6.19,2.31-2.31,4.45-4.66,6.37-7.03.45-.57.9-1.08,1.29-1.59-.42,1.92-.63,3.88-.63,5.86,0,3.37.72,6.16,2.16,8.36,1.47,2.22,3.76,3.31,6.88,3.31s6.16-.87,9.11-2.62c2.98-1.74,5.65-3.73,8.09-6.01,2.4-2.25,4.54-4.54,6.37-6.79,1.83-2.28,3.19-3.94,4.03-4.96.33-.36.54-.72.66-1.14.69-.69,1.47-1.47,2.34-2.34,1.11-1.17,2.31-2.37,3.55-3.58,1.23-1.23,2.4-2.4,3.55-3.58,1.14-1.17,2.19-2.16,3.16-2.98l-21.49,32.95h6.31l11.78-17.95c1.71-2.68,3.73-5.23,5.98-7.67,2.25-2.43,4.66-4.57,7.18-6.37,2.53-1.8,5.02-3.25,7.52-4.36,2.47-1.11,4.84-1.65,7.09-1.65,1.62,0,2.43.69,2.43,2.1,0,2.89-3.25,7.91-9.71,14.97-2.59,2.8-4.51,5.65-5.8,8.57-1.29,2.89-1.95,5.5-1.95,7.85,0,1.95.45,3.52,1.29,4.6.87,1.11,2.16,1.65,3.88,1.65,2.5,0,5.08-.93,7.76-2.77,2.71-1.86,5.26-4.03,7.67-6.46,2.43-2.43,4.63-4.84,6.64-7.24,1.98-2.37,3.46-4.09,4.42-5.14.45-.45.66-.99.66-1.56s-.27-.87-.81-.87Zm-155.03,4.54c-.33-.12-.72-.18-1.14-.18-1.08,0-1.62.42-1.62,1.23,0,.45.18.78.48.93.33.18.6.33.81.45-.63,1.5-1.59,3.1-2.89,4.81-1.29,1.68-2.77,3.22-4.36,4.6-1.62,1.41-3.31,2.56-5.02,3.49-1.71.93-3.4,1.41-5.02,1.41-2.89,0-4.36-1.53-4.36-4.54,0-2.31.75-5.32,2.19-8.99,1.44-3.67,3.28-7.21,5.5-10.64,2.19-3.43,4.57-6.37,7.09-8.87,2.53-2.53,4.93-3.76,7.18-3.76,1.71,0,2.95.57,3.64,1.74.69,1.14,1.05,2.68,1.05,4.54,0,2.31-.36,4.72-1.05,7.21-.69,2.53-1.53,4.69-2.5,6.55Z"/>
      <path class="cls-1" d="m512.63,565.55c-.93-.63-2.13-.96-3.64-.96-2.16,0-4.48.84-6.94,2.53-2.47,1.68-4.87,3.76-7.18,6.19s-4.51,4.96-6.55,7.58c-2.04,2.62-3.7,4.87-4.99,6.73-1.08,1.38-2.49,3.37-4.21,5.92-1.71,2.56-3.52,5.23-5.41,8.03-1.89,2.77-3.7,5.5-5.5,8.18-1.77,2.68-3.31,4.9-4.6,6.64-2.13,1.26-4.06,2.5-5.71,3.64-1.68,1.17-3.43,2.56-5.26,4.21-.12-.6-.33-1.23-.63-1.92-.33-.69-.99-1.05-1.95-1.05-.75,0-1.41.39-2.01,1.14s-1.11,1.68-1.53,2.8c-.42,1.08-.81,2.28-1.14,3.55-.33,1.29-.54,2.47-.63,3.49-.66.48-1.41,1.17-2.25,2.1-.09.12-.15.27-.21.36v.03c-1.23,1.26-2.74,2.16-4.48,2.65-1.83.54-3.19.81-4.06.81.66-1.29,1.38-3.22,2.19-5.77.81-2.56,1.2-5.23,1.2-8.03,0-2.31-.48-4.33-1.44-6.01-.96-1.68-2.74-2.53-5.32-2.53-2.92,0-5.53.54-7.85,1.56-2.31,1.05-4.42,2.37-6.28,3.94-1.89,1.56-3.61,3.34-5.11,5.32-1.5,1.98-2.8,3.82-3.88,5.56-.96,1.65-1.74,3.61-2.34,5.95-.57,2.31-.87,4.63-.87,6.97,0,3.01.6,5.68,1.77,8,1.17,2.34,3.19,3.49,5.98,3.49,2.59,0,4.99-.6,7.27-1.83,2.25-1.2,4.27-2.68,6.04-4.42,1.77-1.74,3.28-3.52,4.51-5.32,1.26-1.8,2.13-3.31,2.68-4.45,1.95,0,4-.36,6.13-1.05,2.16-.69,3.88-1.86,5.17-3.49.33-.24.69-.57,1.14-1.05,0,1.74.06,3.1.24,4.03.15.93.45,1.74.87,2.43-.3.57-1.5,2.86-3.55,6.79-2.04,3.97-5.26,9.47-9.68,16.56l-25.04,39.23h7.61l36.98-57.9c1.83,1.05,3.49,1.68,4.99,1.83,1.53.18,3.19.27,5.02.27,1.92,0,3.85-.39,5.74-1.14,1.86-.75,3.64-1.74,5.32-2.95,1.65-1.23,3.19-2.56,4.51-4.03,1.35-1.44,2.47-2.8,3.34-4.09.21-.24.3-.57.3-1.05,0-.69-.3-1.05-.96-1.05-.21,0-.48.18-.81.54-.87,1.05-1.89,2.22-3.07,3.58-1.17,1.32-2.5,2.59-3.97,3.73-1.44,1.17-3.01,2.16-4.66,2.98-1.68.81-3.43,1.23-5.26,1.23-1.71,0-3.31-.12-4.75-.36-1.47-.24-2.89-.81-4.3-1.74l18.25-30.33c1.95-1.29,4.33-3.01,7.18-5.14,2.86-2.16,5.77-4.48,8.75-6.97,2.95-2.49,5.86-5.05,8.72-7.61,2.83-2.56,5.29-4.81,7.34-6.79,3.13-2.89,5.59-6.07,7.43-9.5,1.83-3.43,2.77-6.31,2.77-8.63,0-1.62-.48-2.77-1.38-3.4Zm-80.84,72.45c-.33-.12-.69-.18-1.14-.18-1.05,0-1.59.42-1.59,1.23,0,.45.15.78.48.93.3.18.57.33.81.45-.66,1.5-1.62,3.1-2.92,4.81-1.29,1.68-2.74,3.22-4.36,4.6-1.62,1.41-3.28,2.56-5.02,3.49-1.71.93-3.4,1.41-4.99,1.41-2.92,0-4.36-1.53-4.36-4.54,0-2.31.72-5.32,2.16-8.99,1.47-3.67,3.28-7.21,5.5-10.64,2.19-3.43,4.57-6.37,7.09-8.87,2.53-2.53,4.93-3.76,7.18-3.76,1.74,0,2.95.57,3.64,1.74.69,1.14,1.05,2.68,1.05,4.54,0,2.31-.36,4.72-1.05,7.21-.69,2.53-1.53,4.69-2.49,6.55Zm17.11,2.07c1.2-2.68,2.04-5.02,2.59-7.06.54-2.01.93-4.03,1.14-6.01,3.13-3.01,6.04-5.32,8.72-6.97l-12.45,20.05Zm60.72-63.28c-1.59,3.13-3.97,6.22-7.09,9.23-2.04,1.98-4.45,4.18-7.18,6.55-2.74,2.37-5.5,4.72-8.24,6.97-2.74,2.25-5.35,4.39-7.85,6.37-2.47,1.95-4.45,3.49-5.95,4.51.84-1.14,1.95-2.71,3.31-4.69,1.35-1.98,2.74-4.03,4.18-6.1,1.47-2.1,2.89-4.15,4.3-6.19,1.38-2.04,2.59-3.76,3.55-5.14,1.17-1.86,2.65-4.06,4.36-6.55,1.71-2.49,3.49-4.84,5.32-7.06,1.83-2.19,3.73-4.06,5.65-5.56,1.95-1.5,3.73-2.28,5.35-2.28,1.83,0,2.74.84,2.74,2.47,0,1.83-.81,4.36-2.43,7.49Z"/>
      <path class="cls-1" d="m733.97,634.51s-.06.06-.09.12c.12-.12.27-.24.42-.42-.12.09-.24.18-.33.3Z"/>
      <path class="cls-1" d="m988.65,604.87h-8.57l13.74-21.46h-6.94l-14.22,21.46h-8.42c-1.38,0-2.07.39-2.07,1.2,0,.6.57.87,1.77.87h7.24l-1.59,2.62c-.45.6-1.56,1.92-3.4,4.03-1.83,2.07-3.94,4.42-6.31,6.97-2.34,2.56-4.72,5.14-7.09,7.76-1.89,2.07-3.49,3.82-4.84,5.2-.36.12-.72.39-1.14.81-1.08,1.29-2.59,3.04-4.51,5.32-1.95,2.25-4.03,4.54-6.22,6.79-2.19,2.28-4.39,4.21-6.55,5.83-2.13,1.65-3.97,2.47-5.47,2.47s-2.25-.6-2.25-1.74c0-1.41.93-3.43,2.83-6.1,1.86-2.68,3.88-5.41,6.04-8.21,2.8-3.49,4.81-6.28,6.07-8.36,1.23-2.1,1.83-4.48,1.83-7.15,0-1.98-.48-3.67-1.44-5.05-.96-1.41-2.47-2.1-4.51-2.1-2.5,0-4.78.36-6.88,1.05-2.1.69-3.97,1.53-5.65,2.53-1.65.99-3.19,2.04-4.6,3.13-1.41,1.11-2.59,2.07-3.55,2.89l36.16-55.28h-6.28l-27.63,42.03c-.42.69-1.65,2.07-3.64,4.09-1.98,2.04-4.18,4.24-6.52,6.55-2.37,2.31-4.63,4.6-6.79,6.79-1.74,1.77-3.07,3.1-3.91,3.97-.06.03-8.84,10.1-12.96,14.16-4.15,4.09-9.08,7.03-14.79,8.9l25.67-40.43h-8.06l-3.1,4.69c-1.05-4.06-3.61-6.1-7.58-6.1-2.16,0-4.3.54-6.46,1.56-2.16,1.05-4.27,2.43-6.37,4.12-2.1,1.68-4.06,3.58-5.89,5.65-1.83,2.1-3.46,4.18-4.84,6.28-.27.42-1.35,1.59-1.62,1.92-.96,1.14-2.43,2.83-4.36,4.96-1.95,2.16-3.97,4.3-6.07,6.46-2.07,2.13-4.12,4.03-6.13,5.65-1.98,1.62-3.58,2.43-4.75,2.43-1.83,0-2.77-.9-2.77-2.77,0-1.62.93-3.97,2.77-6.97l19.06-27.9h-8.24c-.54.69-1.44,1.68-2.68,2.95-1.23,1.29-2.62,2.74-4.12,4.36-1.5,1.62-3.13,3.34-4.84,5.14-1.71,1.8-3.4,3.58-5.02,5.32-.03.03-.06.09-.06.12-.09.06-.15.15-.24.24-1.2,1.26-2.71,2.98-4.54,5.14-1.83,2.13-3.76,4.27-5.8,6.37-2.04,2.07-4.09,3.88-6.13,5.38-2.04,1.53-3.82,2.28-5.35,2.28-.84,0-1.29-.48-1.29-1.41,0-2.89,2.71-8.48,8.09-16.71l41.85-65.23h-6.97l-25.49,39.08c-.54.81-1.59,2.1-3.16,3.91-1.56,1.8-3.43,3.88-5.56,6.19-2.16,2.31-4.51,4.81-7.03,7.43-2.53,2.62-4.93,5.08-7.18,7.4-.15.24-.3.45-.39.63t-.03.06c-1.08,1.17-2.37,2.65-3.88,4.45-1.86,2.28-3.85,4.51-5.95,6.7-2.1,2.22-4.21,4.15-6.31,5.77-2.1,1.62-3.91,2.43-5.41,2.43-2.04,0-3.07-.93-3.07-2.8,0-2.31.93-4.87,2.74-7.67,1.83-2.8,4.12-5.8,6.79-9.08,2.16-2.43,3.76-4.84,4.78-7.21,1.02-2.4,1.53-4.51,1.53-6.37,0-3.61-1.56-5.41-4.69-5.41-1.5,0-3.01.39-4.54,1.14-1.5.75-2.98,1.71-4.42,2.89-1.47,1.14-2.86,2.4-4.21,3.73-1.35,1.35-2.56,2.59-3.64,3.76.42-1.05.78-2.16,1.05-3.4.27-1.23.39-2.47.39-3.76s-.27-2.34-.78-3.22c-.54-.87-1.56-1.32-3.07-1.32-1.95,0-4.21.9-6.79,2.71-2.59,1.8-5.11,3.85-7.61,6.1-2.47,2.28-4.66,4.45-6.52,6.55-1.26,1.38-2.19,2.4-2.83,3.07-.09.06-.12.09-.15.12-.15.18-.3.3-.42.42-.09.09-.18.15-.24.21-1.2,1.2-2.68,2.04-4.36,2.53-1.83.54-3.19.81-4.03.81.63-1.29,1.35-3.22,2.16-5.77.81-2.56,1.2-5.23,1.2-8.03,0-2.31-.48-4.33-1.44-6.01-.96-1.68-2.74-2.53-5.32-2.53-2.92,0-5.53.54-7.85,1.56-2.31,1.05-4.42,2.37-6.28,3.94-1.89,1.56-3.58,3.34-5.11,5.32-1.5,1.98-2.8,3.82-3.88,5.56-.36.63-.69,1.29-.99,2.01-.09.06-.21.15-.3.27-1.26,1.38-2.83,2.34-4.66,2.86-1.83.54-3.19.81-4.06.81.66-1.29,1.38-3.22,2.19-5.77.81-2.56,1.2-5.23,1.2-8.03,0-2.31-.48-4.33-1.44-6.01-.96-1.68-2.77-2.53-5.32-2.53-2.92,0-5.53.54-7.85,1.56-2.31,1.05-4.42,2.37-6.31,3.94-1.86,1.56-3.58,3.34-5.08,5.32-1.5,1.98-2.8,3.82-3.88,5.56-.45.78-.87,1.65-1.26,2.59,0,.03-.03.03-.03.03-1.17,1.41-2.74,3.25-4.66,5.5-1.95,2.28-4.03,4.45-6.22,6.55-2.22,2.07-4.45,3.88-6.7,5.38-2.25,1.53-4.36,2.28-6.31,2.28-3.76,0-5.65-1.62-5.65-4.9,0-2.43.69-5.44,2.1-9.05s3.1-7.49,5.08-11.6c1.98-4.12,4.09-8.27,6.31-12.48,2.19-4.18,4.12-8.06,5.71-11.66,1.29-2.92,2.86-6.28,4.69-10.13,1.83-3.82,3.79-7.82,5.83-11.93,2.04-4.12,4.03-8.21,5.95-12.21,1.95-4,3.73-7.7,5.35-11.06,1.59-3.37,2.92-6.25,3.88-8.63.96-2.37,1.44-3.94,1.44-4.63,0-.24-.06-.36-.15-.36-.45,0-1.5,1.11-3.25,3.34-.84,1.14-2.62,3.34-5.23,6.52-2.65,3.19-5.83,7.15-9.53,11.84-3.73,4.72-7.79,9.95-12.21,15.72-4.42,5.74-8.78,11.75-13.08,18.04-3.79,5.47-7.76,11.3-11.96,17.53-4.18,6.22-8.15,11.99-11.87,17.35-3.7,5.35-6.91,9.77-9.59,13.26-2.71,3.49-4.42,5.23-5.17,5.23-.33,0-.48-.3-.48-.87,0-1.17.87-3.55,2.65-7.15,1.8-3.61,3.97-7.79,6.55-12.57,2.59-4.75,5.32-9.74,8.24-14.91,2.92-5.17,5.5-9.95,7.76-14.37,1.62-3.16,3.49-6.7,5.65-10.64,2.16-3.94,4.36-7.97,6.61-12.02,2.25-4.09,4.51-8.12,6.7-12.11,2.19-4.03,4.15-7.64,5.83-10.91,1.65-3.25,3.04-6.01,4.12-8.27,1.05-2.28,1.59-3.76,1.59-4.45,0-.24-.09-.36-.33-.36-.51,0-1.71,1.05-3.55,3.16-.84,1.02-2.65,3.19-5.41,6.43-2.74,3.25-6.07,7.34-10.01,12.21-3.94,4.9-8.3,10.4-13.17,16.56-4.84,6.16-9.83,12.57-15,19.18-4.21,5.47-8.63,11.24-13.26,17.35-4.63,6.1-9.38,11.78-14.28,17.01-4.9,5.23-9.98,9.56-15.18,12.99-5.23,3.43-10.49,5.14-15.75,5.14-7.97,0-13.71-1.41-17.2-4.27-3.52-2.86-5.26-6.01-5.26-9.5.54.93,1.08,1.62,1.62,2.07.54.48,1.35.72,2.43.72,1.5,0,2.68-.48,3.55-1.41.84-.93,1.29-2.13,1.29-3.67,0-1.26-.45-2.43-1.29-3.49-.87-1.02-2.04-1.56-3.55-1.56-1.74,0-3.13.72-4.21,2.19-1.08,1.44-1.62,3.4-1.62,5.83,0,1.74.42,3.52,1.29,5.32.87,1.8,2.19,3.43,3.97,4.87,1.77,1.47,4.09,2.62,6.94,3.49,2.86.87,6.31,1.32,10.4,1.32,5.92,0,11.45-1.47,16.56-4.36,5.11-2.92,10.07-6.76,14.85-11.6,4.78-4.81,9.59-10.4,14.37-16.74,4.81-6.31,9.83-12.93,15.12-19.78,3.88-4.99,8-10.28,12.36-15.87,4.36-5.56,8.48-10.79,12.36-15.69,3.88-4.87,7.24-9.11,10.16-12.72,2.92-3.61,4.84-5.98,5.8-7.15-1.59,2.56-5.2,8.15-10.79,16.74-5.62,8.6-12.63,19.63-21.01,33.13-2.92,4.87-5.62,9.86-8.15,15-2.53,5.11-4.69,9.95-6.46,14.55-1.77,4.6-3.19,8.78-4.21,12.57-1.02,3.76-1.53,6.7-1.53,8.78,0,.93.12,1.68.33,2.28.21.57.6.87,1.14.87,1.38,0,3.49-1.65,6.28-4.99,2.8-3.31,6.01-7.58,9.62-12.81,3.61-5.23,7.55-11.09,11.87-17.62,4.3-6.49,8.72-12.96,13.23-19.33,4.21-6.04,8.39-11.9,12.6-17.53,4.21-5.65,8-10.67,11.39-15.09,3.4-4.42,6.28-8.09,8.63-10.97,2.37-2.92,3.88-4.78,4.54-5.59-.66,1.29-1.86,3.4-3.64,6.37-1.77,2.95-3.97,6.61-6.55,10.97-2.59,4.36-5.53,9.35-8.87,15-3.34,5.65-6.85,11.75-10.49,18.4-1.74,3.01-3.49,6.43-5.26,10.19-1.77,3.79-3.4,7.64-4.84,11.6-1.47,3.94-2.68,7.79-3.64,11.51-.96,3.7-1.44,7.03-1.44,9.92s.54,5.05,1.68,6.79c1.14,1.74,3.04,2.62,5.74,2.62,3.01,0,5.95-.9,8.81-2.71,2.83-1.77,5.5-3.88,7.97-6.25,2.5-2.4,4.66-4.78,6.55-7.15.36-.45.69-.87,1.02-1.29-.3,1.68-.45,3.37-.45,5.05,0,3.01.6,5.68,1.77,8,1.17,2.34,3.19,3.49,5.98,3.49,2.59,0,4.99-.6,7.24-1.83,2.28-1.2,4.3-2.68,6.07-4.42,1.77-1.74,3.28-3.52,4.51-5.32,1.26-1.8,2.13-3.31,2.68-4.45,1.95,0,3.97-.36,6.13-1.05,1.14-.36,2.13-.87,3.04-1.47,0,.03-.03.06-.03.09-.6,2.31-.9,4.63-.9,6.97,0,3.01.6,5.68,1.77,8,1.17,2.34,3.19,3.49,5.98,3.49,2.59,0,4.99-.6,7.27-1.83,2.25-1.2,4.27-2.68,6.04-4.42,1.77-1.74,3.28-3.52,4.54-5.32,1.23-1.8,2.1-3.31,2.65-4.45,1.95,0,4-.36,6.13-1.05,1.98-.63,3.61-1.68,4.81-3.1.03,0,.03-.03.06-.03.09-.12.21-.21.3-.36.72-.75,1.86-1.98,3.49-3.67,1.86-1.95,3.94-4,6.22-6.1,2.25-2.07,4.45-3.94,6.61-5.56,2.13-1.65,3.88-2.47,5.17-2.47.75,0,1.11.36,1.11,1.05,0,.81-.3,1.77-.96,2.89-.63,1.11-1.23,2.07-1.77,2.89l-20.35,30.66h8.39l12.63-19.51c1.29-1.98,2.86-4.03,4.75-6.19,1.89-2.16,3.82-4.12,5.8-5.92,2.01-1.8,3.91-3.31,5.74-4.45,1.83-1.17,3.4-1.74,4.69-1.74.63,0,1.11.12,1.38.33.27.24.39.81.39,1.74,0,1.41-.99,3.13-2.98,5.17-2.01,2.01-4.03,4.39-6.07,7.03-3.13,4.09-5.14,7.3-6.04,9.68-.93,2.4-1.38,4.81-1.38,7.24,0,2.8.6,4.78,1.77,5.92,1.2,1.17,2.86,1.74,5.02,1.74,1.83,0,3.91-.84,6.22-2.53,2.31-1.68,4.6-3.67,6.85-5.92,2.25-2.25,4.39-4.6,6.37-6.97,1.98-2.37,3.58-4.21,4.78-5.5.21-.21.36-.42.42-.63.03-.03.06-.03.06-.06,3.01-3.1,5.44-5.59,7.34-7.4,2.1-2.04,3.91-3.88,5.41-5.5-5.92,8.03-10.01,14.43-12.27,19.27-2.25,4.81-3.4,8.45-3.4,10.88,0,1.74.48,3.01,1.44,3.76.96.75,2.1,1.14,3.4,1.14,2.25,0,4.66-.84,7.18-2.56,2.53-1.65,5.02-3.67,7.43-6.01,2.43-2.31,4.63-4.66,6.64-7.03,1.98-2.4,3.58-4.36,4.75-5.86.18-.21.33-.39.42-.6v-.03c1.68-1.8,3.31-3.52,4.9-5.11,1.74-1.74,3.04-3.1,3.88-4.03-3.76,4.66-6.55,9.02-8.39,13.08-1.83,4.09-2.74,7.64-2.74,10.64,0,4.66,1.71,6.97,5.14,6.97,1.83,0,3.76-.63,5.74-1.92,1.98-1.26,4.03-2.89,6.07-4.87,2.04-1.98,4.12-4.18,6.19-6.61.9-1.05,1.74-2.04,2.62-3.04-.06.15-.12.33-.18.51-1.02,2.95-1.53,5.71-1.53,8.27,0,2.31.48,4.18,1.44,5.59.99,1.38,2.56,2.07,4.69,2.07,1.41,0,2.83-.33,4.27-1.05,1.47-.69,2.8-1.53,3.97-2.53,1.17-.96,2.19-1.92,3.07-2.86.87-.93,1.44-1.59,1.77-1.92l-8.39,13.08c-2.16,1.05-4.63,2.34-7.43,3.91-2.8,1.59-5.59,3.37-8.42,5.41-2.8,2.04-5.53,4.27-8.24,6.7-2.68,2.47-5.05,5.08-7.09,7.85-4.84,6.97-7.27,12.21-7.27,15.69,0,2.8,1.5,4.21,4.54,4.21,1.83,0,3.76-.51,5.8-1.5,2.04-.99,4.09-2.31,6.13-4s4.06-3.55,6.07-5.59c1.98-2.01,3.91-4.09,5.71-6.19,2.07-2.43,4.12-5.08,6.16-7.94,2.04-2.83,3.94-5.59,5.71-8.27,1.77-2.68,3.37-5.11,4.78-7.34,1.38-2.19,2.46-3.82,3.22-4.87,3.67-1.17,6.88-2.59,9.71-4.27,2.8-1.68,5.38-3.55,7.73-5.59,2.37-2.01,4.57-4.21,6.55-6.52,1.19-1.4,3.16-3.79,4.45-5.37.76-.93,1.57-1.8,2.44-2.63.75-.72,1.69-1.65,2.31-2.29,1.14-1.17,2.31-2.37,3.55-3.58,1.26-1.23,2.43-2.4,3.58-3.58,1.11-1.17,2.16-2.16,3.13-2.98l-21.46,32.95h6.28l11.81-17.95c1.71-2.68,3.7-5.23,5.95-7.67,2.28-2.43,4.66-4.57,7.18-6.37,2.56-1.8,5.05-3.25,7.52-4.36,2.5-1.11,4.84-1.65,7.12-1.65,1.59,0,2.41.69,2.41,2.1,0,2.89-3.22,7.91-9.68,14.97-2.59,2.8-4.51,5.65-5.8,8.57-1.29,2.89-1.95,5.5-1.95,7.85,0,1.95.42,3.52,1.29,4.6.87,1.11,2.16,1.65,3.88,1.65,2.47,0,5.05-.93,7.76-2.77,2.68-1.86,5.23-4.03,7.67-6.46,2.43-2.43,4.63-4.84,6.61-7.24,2.01-2.37,3.49-4.09,4.45-5.14.12-.15.24-.3.33-.45v-.03c2.8-2.83,5.26-5.38,7.43-7.7,2.37-2.56,4.57-5.02,6.61-7.34-.87,1.17-1.83,2.53-2.92,4.09-1.05,1.59-2.13,3.19-3.22,4.81-1.08,1.62-2.1,3.22-3.07,4.78s-1.77,3.01-2.43,4.27c-1.17,2.1-2.1,4.18-2.74,6.19-.66,2.04-.96,4-.96,5.86s.45,3.37,1.35,4.51c.93,1.17,2.47,1.74,4.63,1.74,1.8,0,3.73-.63,5.71-1.89,1.98-1.29,4.12-2.98,6.37-5.08,1.83-1.83,3.7-3.88,5.59-6.1,1.86-2.19,3.85-4.51,5.89-6.97.42-.57.63-1.08.63-1.56,0-.69-.21-1.05-.63-1.05s-.81.18-1.14.54c-1.5,1.74-3.22,3.73-5.17,6.01-1.92,2.25-3.88,4.39-5.89,6.37-1.98,1.95-3.91,3.64-5.71,5.05-1.83,1.38-3.31,2.07-4.39,2.07-1.71,0-2.56-.9-2.56-2.77,0-.81.24-1.83.78-3.07.54-1.2,1.23-2.53,2.04-3.91.78-1.41,1.68-2.86,2.65-4.36.96-1.53,1.89-2.98,2.77-4.36l18.25-28.62h9.83c1.2,0,1.77-.33,1.77-1.02s-.54-1.05-1.59-1.05Zm-301.85,33.13c-.33-.12-.69-.18-1.14-.18-1.08,0-1.59.42-1.59,1.23,0,.45.15.78.48.93.3.18.57.33.81.45-.66,1.5-1.62,3.1-2.92,4.81-1.29,1.68-2.74,3.22-4.36,4.6-1.62,1.41-3.31,2.56-5.02,3.49-1.71.93-3.4,1.41-4.99,1.41-2.92,0-4.36-1.53-4.36-4.54,0-2.31.72-5.32,2.16-8.99,1.47-3.67,3.28-7.21,5.5-10.64,2.19-3.43,4.57-6.37,7.09-8.87,2.53-2.53,4.93-3.76,7.18-3.76,1.74,0,2.95.57,3.64,1.74.69,1.14,1.05,2.68,1.05,4.54,0,2.31-.36,4.72-1.05,7.21-.69,2.53-1.53,4.69-2.5,6.55Zm36.49,0c-.33-.12-.69-.18-1.14-.18-1.05,0-1.59.42-1.59,1.23,0,.45.15.78.48.93.33.18.57.33.81.45-.66,1.5-1.62,3.1-2.92,4.81-1.29,1.68-2.74,3.22-4.36,4.6-1.62,1.41-3.28,2.56-5.02,3.49-1.71.93-3.37,1.41-4.99,1.41-2.92,0-4.36-1.53-4.36-4.54,0-2.31.72-5.32,2.16-8.99,1.47-3.67,3.31-7.21,5.5-10.64,2.19-3.43,4.57-6.37,7.09-8.87,2.56-2.53,4.93-3.76,7.18-3.76,1.74,0,2.95.57,3.64,1.74.72,1.14,1.05,2.68,1.05,4.54,0,2.31-.33,4.72-1.05,7.21-.69,2.53-1.53,4.69-2.5,6.55Zm124.43,34.6c-2.19,3.55-4.48,7-6.85,10.37-1.5,1.98-3.13,4.15-4.84,6.55-1.71,2.37-3.52,4.57-5.32,6.61-1.83,2.04-3.64,3.76-5.41,5.14-1.8,1.41-3.37,2.1-4.78,2.1-1.71,0-2.59-.87-2.59-2.62,0-1.62.66-3.73,1.95-6.28,1.29-2.56,3.01-5.47,5.14-8.72,1.74-2.43,3.85-4.78,6.31-6.97,2.47-2.22,5.05-4.24,7.76-6.1,2.68-1.86,5.23-3.49,7.67-4.87,2.43-1.41,4.45-2.56,6.07-3.49-1.2,1.95-2.89,4.72-5.11,8.27Zm14.7-25.97c-1.65,1.68-3.25,3.13-4.75,4.36-1.5,1.2-2.89,2.16-4.12,2.89-1.23.69-2.25,1.02-3.01,1.02-1.17,0-1.77-1.08-1.77-3.31s.69-5.2,2.1-8.96c1.41-3.79,3.28-7.24,5.65-10.4,3.76-5.32,7.15-9.14,10.19-11.39,3.01-2.28,5.38-3.43,7.09-3.43,1.29,0,2.37.57,3.22,1.65.87,1.11,1.41,2.56,1.62,4.3-.21.33-.69,1.14-1.44,2.43-.75,1.26-1.68,2.77-2.77,4.45-1.05,1.68-2.25,3.49-3.55,5.38-1.29,1.92-2.53,3.7-3.7,5.32-1.53,2.1-3.1,4-4.78,5.68Z"/>
      <path class="cls-1" d="m855.24,594.83c-.75-.87-1.83-1.29-3.22-1.29-1.62,0-2.86.42-3.73,1.29-.84.87-1.29,1.89-1.29,3.07,0,2.56,1.29,3.82,3.88,3.82,3.67,0,5.5-1.38,5.5-4.18,0-.93-.39-1.83-1.14-2.71Z"/>
    </g>
  </g>
</svg>