<?xml version="1.0" encoding="UTF-8"?>
<svg id="Layer_1" data-name="Layer 1" xmlns="http://www.w3.org/2000/svg" viewBox="0 0 1080 1080">
  <defs>
    <style>
      .cls-1 {
        fill: #fff;
      }
    </style>
  </defs>
  <rect x="-13.6" y="-38.09" width="1107.71" height="1159.85"/>
  <g>
    <g>
      <path class="cls-1" d="m614.19,445.19v33.82c-.04.05-.07.11-.11.16-3.29,4.78-6.83,9.66-10.62,14.6-.02.02-.04.05-.05.07,0,0,0,.01-.01.02,0,0-.01.01-.02.02-4.28,5.59-8.87,11.26-13.75,16.99-.04.04-.07.09-.11.13-.04.04-.07.08-.11.13-4.53,5.3-9.3,10.65-14.31,16.02,0,0-.01.02-.02.02-1.2,1.28-2.41,2.56-3.63,3.85-.03.03-.06.06-.09.1-.03.03-.06.06-.09.1-6.16,6.46-12.66,12.94-19.47,19.39-.03.03-.07.06-.1.1-.03.03-.07.06-.1.1-.03.03-.06.06-.09.09-.62.59-1.24,1.17-1.87,1.76-.88.82-1.75,1.64-2.63,2.45-.01.01-.02.02-.03.03,0,0-.02.01-.02.02-.02.02-.04.04-.06.05-11.38,10.53-22.9,20.33-34.35,29.28-1.75,1.37-3.5,2.72-5.25,4.06h0s-.02.01-.02.02t0,0s-.02.01-.02.02c-4.7,3.58-9.38,7.02-14.02,10.3,0,0-.02.01-.03.02-.01,0-.02.02-.04.02-1.73,1.22-3.46,2.42-5.18,3.6-.04.03-.07.05-.11.08s-.07.05-.11.08c-9.72,6.66-19.25,12.62-28.43,17.81h-40.59c6.6-2.77,13.52-6.07,20.68-9.87h0s0,0,0,0c0,0,0,0,0,0,2.46-1.31,4.94-2.67,7.45-4.09,0,0,0,0,.01,0,0,0,0,0,0,0,13.08-7.4,26.84-16.36,40.85-26.65.04-.03.07-.05.11-.08s.07-.05.11-.08c5.22-3.84,10.47-7.86,15.73-12.06,0,0,.01-.01.02-.02,2.93-2.34,5.87-4.74,8.81-7.18,1.27-1.06,2.55-2.13,3.82-3.21,0,0,0,0,.02-.01t0,0c2.44-2.07,4.88-4.18,7.32-6.32.03-.03.06-.06.1-.09.04-.03.07-.06.11-.1.04-.03.07-.06.11-.1,4.36-3.84,8.71-7.79,13.03-11.84,2.68-2.51,5.31-5.03,7.89-7.55.03-.03.07-.06.1-.1s.06-.06.1-.1c16.98-16.57,31.88-33.24,44.28-49.24.04-.05.07-.09.11-.14.04-.05.07-.09.11-.14,9.75-12.6,17.95-24.77,24.39-36.13.02-.03.04-.06.05-.1,0,0,0-.01,0-.02.01-.02.03-.05.04-.07h.07Z"/>
      <path class="cls-1" d="m614.19,493v127.48h-24.67v-69.6h-26.62c6.81-6.58,13.28-13.19,19.41-19.76h7.21v-7.9c9.15-10.26,17.41-20.39,24.67-30.22Z"/>
      <path class="cls-1" d="m534.25,531.3c-.76.72-1.53,1.45-2.3,2.17-6.41,6.01-12.88,11.8-19.36,17.33-.1.09-.2.17-.31.26-8.13,6.94-16.28,13.48-24.37,19.58v-125.27h24.67v85.93h21.66Z"/>
      <path class="cls-1" d="m512.54,594.09v26.39h-24.67v-8.95c8.1-5.32,16.35-11.15,24.67-17.44Z"/>
    </g>
    <path class="cls-1" d="m719.62,575.75c-.78-3.6-2.26-6.97-2.84-10.64-.07-.41-.12-.83-.17-1.25.42-4.6.52-9.23.49-13.87,1.25-7.03,3.24-13.66,2.03-20.96-.1-.61-.32-1.11-.61-1.5-.42-4.19-1.38-8.34-2.11-12.53.06-3.15.09-6.5-.86-9.4.03-4.07.35-8.17-.61-12.16-1.02-4.25-3.84-7.67-5.72-11.53-1.87-3.84-3.21-7.92-4.92-11.83-.43-.98-.91-1.91-1.41-2.81-.31-1.18-.62-2.35-.94-3.53-.43-1.63-1.61-2.41-2.9-2.56-1.03-1.99-2.07-3.97-3.12-5.95-.8-2.95-.96-6.11-2.57-8.82-.9-1.52-2.81-2.92-4.5-4.4-1.21-2.22-2.43-4.44-3.65-6.66-.02-.03-.03-.06-.05-.08-.15-.28-.31-.56-.46-.84-2.74-4.93-5.2-10.63-9.3-14.6-4.28-4.14-9.73-7.07-14.23-11.02-.16-.14-.31-.27-.46-.41-1.51-3.17-2.61-6.2-6.52-7.74-.8-.31-1.63-.5-2.47-.65-5.28-5.05-10.57-10.08-16.51-14.37-4.52-3.27-9.41-6.02-14.65-7.95-4.92-1.81-9.89-2.35-15.04-2.68-4.23-2.3-8.42-2.95-13.43-3.64-1.34-.78-2.67-1.56-4.09-2.19-5.44-2.42-11.35-3.49-17.19-4.48-11.18-1.89-22.53-2.84-33.87-2.75-22.96.17-45.97,4.39-67.46,12.48-11.6,4.37-23.22,9.65-33.53,16.58-6.23,4.18-12.14,9.34-15.99,15.73-5.26,4.15-9.3,9.77-12.87,15.46-1.42,2.26-2.82,4.53-4.21,6.81-.07.04-.13.08-.2.12-3.66,2.33-6.63,5.2-9.05,8.81-1.99,2.96-3.49,6.2-5.09,9.38-1.04.05-2.04.59-2.66,1.85-4.29,8.65-13.54,13.8-13.72,24.37,0,.52.08.98.23,1.38-8.15,16.87-12.39,35.44-12.08,54.2.04,2.71.19,5.41.42,8.11-.25,3.58-.43,7.16-.56,10.74-.37,10.8.51,20.61,5.79,30.22,1.07,1.96,2.14,3.87,3.1,5.82.08.92.16,1.84.27,2.76.54,4.58,1.81,8.85,3.6,12.9.36,2.96.84,5.9,1.96,8.71,2.38,5.96,7.01,10.04,11.29,14.47,2.61,4.85,5.45,9.59,8.53,14.19,1.61,6.24,2.06,12.9,6.17,18.25,2.94,3.83,6.91,6.61,10.76,9.45,4.72,3.48,9.45,6.96,14.18,10.44,8.96,6.6,17.77,13.76,27.59,19.06,3.87,2.09,7.94,3.85,12.15,5.13.37.63.84,1.21,1.37,1.72,2.7,2.58,6.97,4,10.62,4.92,1.62.73,3.28,1.36,4.97,1.92.23.2.46.43.69.7,1.59,1.87,2.86,2.58,5.14,3.54,3.97,1.67,8.99,5.2,13.26,2.99.04-.02.07-.05.11-.07,4.93-.2,10.29,1.6,15.27,1.26,10.12,1.05,20.45.75,30.59.94,11.83.23,23.92,1.21,35.73.56,10.85-.6,18.75-8.18,28.24-12.55,9.67-4.45,18.45-9.06,26.67-15.91,2.82-2.36,5.58-4.8,8.31-7.27,11.55-8.23,21.97-17.97,30.97-28.88,3.91-3.62,8.08-7.12,11.55-11.17,4.81-5.62,6.5-11.97,8.04-18.7,2.99-5.87,5.63-11.93,7.88-18.14.1-.28.16-.55.19-.82,1.62-1.21,3.52-2.52,3.9-3.03,1.98-2.6,1.9-5.85,3.14-8.77,2.56-6.06,9.01-9.37,7.39-16.83Zm-316.36,65.6c1.11,1.39,2.19,2.79,3.22,4.23-1.1-1.39-2.17-2.8-3.22-4.23Zm306.03-77.71c-.48,4.98-1.36,9.9-2.94,14.7-.94,2.86-2.11,5.56-2.4,8.58-.36,3.79-.26,5.38-3.48,7.67-4.25,3.02-5.26,6.64-5.02,11.18-2.85,4.44-4.02,9.72-5.12,14.97-4.96,9.65-10.94,18.76-17.81,27.17-7.77,7.22-15.55,14.45-23.32,21.67-2.49,2.32-4.97,4.68-7.48,7.01-.22.15-.43.31-.65.46-14.06,9.76-29.42,16.49-45.63,21.8-9.22,3.03-18.53,6.3-28.09,8.11-10.43,1.97-20.02.27-30.25-1.86-9.54-1.99-18.77-2.33-28.49-2.03-3.51.11-7.06.21-10.6.09-3.11-1.74-6.15-3.63-9.42-5.09-4.65-2.07-9.53-3.06-14.48-4.12-.67-.14-1.33-.3-1.99-.46.02-.7.02-1.4-.23-2.02-1.38-3.53-5.8-4.18-9.27-4.3-6.15-5.12-12.22-10.38-19.36-14.01-6.18-3.15-13.22-5.08-18.8-9.32-6.63-5.03-6.14-13.83-10.61-20.4-5.38-7.91-11.8-15.24-17.7-22.75-5.64-7.18-11.83-14.25-15.94-22.47-.09-.17-.15-.34-.24-.52-.18-1.62-.33-3.24-.55-4.83-.52-3.82-1.57-7.33-3.1-10.76-.46-4.76-.72-9.58-1.76-14.32-1.35-6.14-3.1-12.09-4.47-18.14-.19-3.27-.29-6.56-.29-9.87,0-15.48,2.07-30.49,5.94-44.76,3.62-10.82,8.81-20.96,14.55-30.82,5.85-10.06,11.97-19.97,18.02-29.91,3.52-2.12,7.03-4.19,9.6-7.48,1.11-1.43,1.01-3.08.3-4.36.24-.23.44-.49.6-.77,1.39.44,2.94.05,3.83-1.69,2-3.9,4.48-7.42,7.4-10.51,3.2-2.73,6.49-5.34,9.88-7.83.88-.52,1.78-1.01,2.71-1.47,4.56-2.26,9.39-3.92,14.01-6.05,4.72-2.17,9.08-4.98,13.64-7.45,9.18-4.97,19.35-6.67,29.48-8.61,11.13-2.14,22.16-4.72,33.08-7.71.08-.02.16-.05.24-.08.04,0,.07,0,.11,0,12.27-1.37,24.17,2.13,36.27,3.58,2.85.34,5.77.28,8.61.65,2.95.39,5.38,2.23,8.19,3.11,1.06.33,2.14.56,3.22.74,1.72.91,3.46,1.77,5.32,2.42,2.77.96,5.64,1.23,8.54,1.39,1.93,1.28,3.78,2.59,5.95,3.5,2.72,1.14,5.65,1.66,8.28,3.04,5.38,2.83,10.34,6.75,15.38,10.13,4.56,3.05,9.13,6.92,14.68,7.88.23.04.45.07.68.11.97.93,1.94,1.86,2.92,2.78,1.28,1.21,2.58,2.4,3.9,3.57.37.86.77,1.71,1.3,2.5,2.03,3.01,5.71,4.1,8.58,5.96,1.14,1.2,2.27,2.42,3.38,3.66,1.2,2.55,1.75,5.28,3.35,7.66,1.63,2.44,3.77,4.35,6.24,5.9.22.14.44.24.66.33.54,2.63,2.04,4.76,4.01,6.66,2.15,3.96,4.28,7.94,6.38,11.93.69,2.29,1.89,4.21,3.2,6.09,1.51,2.91,3.01,5.83,4.5,8.75.01.03.03.05.04.07l3.55,13.35c1.55,5.85,2.37,13.46,5.89,18.53.55.8,1.4,1.44,1.89,2.25.07.11.12.21.17.32.06,3.01.3,6,.77,8.97.04,1.75.08,3.49.13,5.24.16,6.71.32,13.43.48,20.14.07,2.89.14,5.8.15,8.7-.29,1.54-.53,3.08-.65,4.62-.24,2.95-.16,5.91.14,8.84Z"/>
  </g>
</svg>